<svg width="24" height="34" viewBox="0 0 24 34" fill="none" xmlns="http://www.w3.org/2000/svg">
<path d="M4.65167 6.05818C7.44058 5.94189 10.2332 5.96472 13.0238 5.99505C14.2708 6.02523 15.5184 6.03062 16.7654 6.05905C17.0731 6.06599 16.9287 6.06288 17.1988 6.06849L18.4715 5.19675C18.1846 5.20237 18.3382 5.19926 18.0105 5.20618C16.7012 5.23417 15.3914 5.2405 14.0821 5.27018C11.3531 5.29893 8.6214 5.32879 5.89427 5.20705L4.65167 6.05818V6.05818Z" fill="black"/>
<path d="M16.9776 6.54949C17.1351 8.67609 16.8607 10.8137 16.5287 12.9144C16.3965 13.751 16.2616 14.5878 16.0853 15.4171C15.8974 16.3009 15.6528 17.1732 15.4366 18.0512C14.6521 20.1291 14.3937 21.2965 12.9646 23.1065C11.8144 24.5632 10.1227 25.9754 8.3689 26.7631C7.38328 27.2058 5.65849 27.0372 4.68866 27.0198C4.1373 26.7881 3.53343 26.6453 3.03459 26.3249C1.71493 25.4772 1.04773 23.9434 1.11097 22.4721C1.16222 21.2799 1.55038 20.6687 2.02317 19.5897C2.69519 18.4282 3.48396 17.3056 4.48681 16.3703C5.2432 15.6648 6.12712 15.1258 7.02147 14.5949L5.71143 15.0757C4.84688 15.6103 3.98702 16.1539 3.26206 16.8582C2.98673 17.1257 2.73824 17.4174 2.49726 17.7129C1.65236 18.749 1.61899 18.9024 0.910592 20.0739C0.444497 21.161 0.0416506 21.8194 0.00236318 23.0202C-0.0471911 24.5349 0.684076 26.0958 2.0565 26.9387C2.58313 27.2622 3.21405 27.4009 3.79282 27.6319C4.52047 27.6343 5.2668 27.7936 5.97576 27.6391C7.88816 27.2224 10.1304 26.1343 11.6384 24.9156C12.4304 24.2755 13.1582 23.5538 13.7797 22.7639C15.2254 20.9268 15.4758 19.7786 16.271 17.6732C16.4989 16.7879 16.752 15.908 16.9548 15.0173C17.1458 14.1785 17.2961 13.3319 17.4519 12.4866C17.8548 10.3007 18.1797 8.09985 18.3572 5.88678L16.9776 6.54949V6.54949Z" fill="black"/>
<path d="M17.5594 5.54424C17.5673 5.54424 17.5736 5.53822 17.5736 5.53079C17.5736 5.52336 17.5673 5.51733 17.5594 5.51733C17.5515 5.51733 17.5451 5.52336 17.5451 5.53079C17.5451 5.53822 17.5515 5.54424 17.5594 5.54424Z" fill="black" stroke="black" stroke-width="0.264583"/>
<path d="M19.2608 0C18.3327 0.0690552 17.3952 0.0200748 16.4683 0.102914C15.8962 0.154044 15.3245 0.221308 14.7607 0.326134C14.1756 0.434911 13.5878 0.551155 13.0271 0.74272C12.4762 0.930954 11.9707 1.22088 11.4424 1.45995C10.6748 2.02382 9.78518 2.46508 9.13966 3.15157C8.74765 3.56844 8.52906 4.13066 8.41677 4.67762C8.29354 5.27786 8.31949 5.91259 8.44985 6.51149C8.7901 8.07468 9.71724 9.34565 10.7685 10.5546C11.378 11.2556 12.0874 11.8738 12.7468 12.5334C14.151 13.8091 15.7903 15.2681 17.1253 16.6054C17.7944 17.2758 18.4628 17.9494 19.0731 18.6678C20.1382 19.9218 21.0887 21.2496 21.6931 22.7632C21.9478 23.4009 22.0519 24.0832 22.2313 24.7432C22.2091 25.3895 22.2964 26.0475 22.1647 26.6821C21.8649 28.1256 21.1588 29.151 20.116 30.2173C19.6238 30.7206 19.0728 31.177 18.4846 31.5784C16.7847 32.7386 17.2001 32.5925 15.7032 32.4709C15.0912 32.4943 14.4787 32.5739 13.8672 32.5413C12.3879 32.4624 11.0097 32.0147 9.9762 30.9847C9.3167 30.3275 9.26062 29.9992 8.91332 29.2002C8.86664 28.9141 8.78357 28.6312 8.77327 28.3419C8.75616 27.8609 8.8828 27.3506 9.08924 26.9129C9.3285 26.4057 9.71269 26.0157 10.1238 25.6327L8.73115 26.1798C8.34865 26.5782 7.9963 26.9829 7.78722 27.4931C7.4465 28.3247 7.48671 28.9773 7.72163 29.831C8.10257 30.6389 8.17661 30.9819 8.86727 31.6406C9.96268 32.6852 11.3893 33.1214 12.9217 33.1946C13.5482 33.2246 14.1752 33.1439 14.8019 33.1185C15.7835 32.8025 16.7959 32.5612 17.7467 32.1705C18.963 31.6707 20.2333 30.7304 21.1129 29.8119C22.1511 28.728 22.8814 27.6641 23.1662 26.2037C23.2911 25.5629 23.1856 24.9008 23.1953 24.2494C22.9955 23.5921 22.8705 22.9104 22.5959 22.2776C21.9495 20.7883 20.9361 19.4492 19.8543 18.2216C19.2277 17.5107 18.5397 16.8497 17.8657 16.1786C16.2259 14.5458 15.2307 13.6483 13.5406 12.0788C12.9005 11.4136 12.2052 10.7922 11.6203 10.0833C10.2862 8.46644 9.00258 6.36152 9.50549 4.20909C9.67682 3.4758 10.2625 2.87719 10.5071 2.16397C11.0315 1.91802 11.5315 1.61898 12.0803 1.42611C12.6308 1.23263 13.21 1.11501 13.7871 1.01124C15.1751 0.761674 16.5747 0.797775 17.9755 0.88042L19.2608 0V0Z" fill="black"/>
<path d="M15.9395 5.77928C15.9658 5.77928 15.9871 5.7592 15.9871 5.73443C15.9871 5.70966 15.9658 5.68958 15.9395 5.68958C15.9132 5.68958 15.8919 5.70966 15.8919 5.73443C15.8919 5.7592 15.9132 5.77928 15.9395 5.77928Z" fill="black" stroke="black" stroke-width="0.264583"/>
</svg>
