<svg width="955" height="904" viewBox="0 0 955 904" fill="none" xmlns="http://www.w3.org/2000/svg">
<path d="M282.76 778.733L306.31 792.592L341.86 739.813L318.31 725.923L282.76 778.733Z" fill="#B28B67"/>
<path d="M307.15 791.807L287.8 767.863C287.473 767.445 287.006 767.162 286.487 767.068C285.967 766.973 285.431 767.074 284.98 767.35L263.98 780.031C263.461 780.37 263.019 780.816 262.682 781.338C262.346 781.861 262.122 782.448 262.026 783.064C261.929 783.679 261.963 784.307 262.124 784.908C262.285 785.51 262.57 786.07 262.96 786.553C269.86 794.766 273.61 798.389 282.13 808.927C287.35 815.419 297.52 829.369 304.78 838.306C312.04 847.244 321.19 840.51 318.97 836.132C309.01 816.506 308.62 805.938 308.77 796.427C308.795 794.742 308.22 793.103 307.15 791.807Z" fill="#263238"/>
<path d="M316 806.814H315.43C311.59 806.21 307.51 799.446 305.44 795.491C305.395 795.409 305.377 795.314 305.388 795.221C305.399 795.128 305.439 795.04 305.501 794.97C305.564 794.901 305.647 794.852 305.738 794.832C305.829 794.812 305.924 794.82 306.01 794.857C307.27 795.4 318.37 800.322 319.06 803.915C319.119 804.239 319.095 804.573 318.99 804.884C318.885 805.196 318.702 805.476 318.46 805.697C318.147 806.041 317.767 806.318 317.344 806.51C316.921 806.702 316.464 806.805 316 806.814ZM307 796.185C310.15 801.892 313.39 805.485 315.7 805.848C316.11 805.919 316.532 805.885 316.926 805.747C317.319 805.61 317.672 805.374 317.95 805.063C318.077 804.94 318.174 804.788 318.231 804.62C318.288 804.452 318.305 804.272 318.28 804.096C317.71 801.681 310.72 797.967 307 796.185Z" fill="#FA3B5A"/>
<path d="M314.68 797.333C311.59 797.308 308.534 796.682 305.68 795.491C305.609 795.461 305.548 795.411 305.506 795.346C305.463 795.282 305.44 795.206 305.44 795.129C305.426 795.048 305.436 794.965 305.468 794.89C305.5 794.815 305.553 794.751 305.62 794.706C305.89 794.525 311.95 790.388 316.24 791.234C316.85 791.349 317.43 791.588 317.946 791.936C318.462 792.283 318.902 792.733 319.24 793.257C320.17 794.676 319.81 795.581 319.24 796.065C317.936 797.056 316.305 797.51 314.68 797.333ZM306.79 795.008C310.48 796.487 317.26 797.001 318.64 795.461C318.64 795.31 319.15 794.887 318.4 793.77C318.135 793.344 317.785 792.979 317.372 792.699C316.958 792.418 316.491 792.227 316 792.139C312.697 792.154 309.48 793.199 306.79 795.129V795.008Z" fill="#48B8A8"/>
<path d="M245.8 362.928L246.94 367.518L248.23 372.469C249.1 375.791 250.09 379.142 251.08 382.494C253.08 389.197 255.19 395.89 257.41 402.573C259.75 409.216 262 415.919 264.55 422.531C265.78 425.823 267.01 429.174 268.3 432.465L269.83 436.421C270.15 437.103 270.553 437.742 271.03 438.323C274.77 442.113 279.314 445.003 284.32 446.777C290.462 449.289 296.792 451.309 303.25 452.816C309.91 454.386 316.75 455.685 323.68 456.772C330.61 457.859 337.72 458.704 344.68 459.459L344.92 473.681C329.96 475.246 314.88 475.246 299.92 473.681C292.09 472.889 284.349 471.384 276.79 469.182C272.664 467.946 268.649 466.36 264.79 464.441C260.366 462.288 256.314 459.433 252.79 455.987C250.749 453.944 248.984 451.639 247.54 449.133C247.134 448.479 246.764 447.803 246.43 447.11L245.74 445.69L244.54 443.184C242.92 439.833 241.3 436.481 239.8 433.069C236.8 426.245 233.8 419.391 231.16 412.386C228.52 405.381 225.97 398.316 223.69 391.25C222.58 387.627 221.53 383.973 220.69 380.29L219.25 374.674C218.83 372.711 218.44 371.02 218.02 368.635L245.8 362.928Z" fill="#B28B67"/>
<path d="M236.89 333.006C248.14 335.874 256.03 382.494 256.03 382.494L225.01 403.63C225.01 403.63 195.28 356.617 204.01 344.147C212.95 331.284 220.48 328.778 236.89 333.006Z" fill="#FA3B5A"/>
<path d="M238 349.944L214 355.561L211.69 379.263C215.774 387.641 220.28 395.804 225.19 403.72L244 390.858C243.01 379.957 241 357.312 238 349.944Z" fill="#FA3B5A"/>
<path d="M340.54 459.157L359.89 439.41L362.44 467.219C362.44 467.219 347.92 477.123 337.87 471.808L340.54 459.157Z" fill="#E4897B"/>
<path d="M382.66 436.421L383.53 459.852L362.44 467.189L359.89 439.38L382.66 436.421Z" fill="#E4897B"/>
<path d="M243.91 833.053H271.21L280 769.403H252.67L243.91 833.053Z" fill="#B28B67"/>
<path d="M273.01 824.84L246.01 810.316C245.548 810.061 245.01 809.985 244.496 810.102C243.982 810.219 243.528 810.521 243.22 810.95L228.73 830.848C228.384 831.364 228.151 831.948 228.044 832.56C227.937 833.173 227.959 833.802 228.109 834.405C228.259 835.009 228.533 835.574 228.914 836.064C229.295 836.554 229.774 836.958 230.32 837.25C239.83 842.141 244.69 844.013 256.6 850.384C263.92 854.309 282.28 865.149 292.42 870.584C302.56 876.019 308.38 866.206 304.66 863.036C287.95 848.844 279.85 837.28 276.34 828.493C275.707 826.909 274.524 825.611 273.01 824.84Z" fill="#263238"/>
<path d="M341.86 739.813L323.53 767.018L299.95 753.159L318.28 725.923L341.86 739.813Z" fill="#CE6F64"/>
<path d="M252.67 769.433H280L275.44 802.224H248.14L252.67 769.433Z" fill="#CE6F64"/>
<path d="M236.89 333.005C236.89 333.005 249.91 337.625 223.84 498.862H112.84C114.7 453.571 114.73 425.43 93.1599 332.19C108.69 328.974 124.431 326.895 140.26 325.97C157.028 324.761 173.861 324.761 190.63 325.97C212.35 327.963 236.89 333.005 236.89 333.005Z" fill="#FA3B5A"/>
<path d="M145.36 268.933C148.54 285.238 151.72 315.1 140.38 326C140.38 326 144.82 342.547 174.91 342.547C203.89 342.547 190.75 326 190.75 326C172.75 321.652 173.14 308.156 176.29 295.474L145.36 268.933Z" fill="#B28B67"/>
<path d="M157.96 279.743L176.26 295.444C175.488 298.412 174.976 301.443 174.73 304.502C167.8 303.506 158.32 295.867 157.6 288.59C157.195 285.643 157.317 282.647 157.96 279.743Z" fill="#B28B67"/>
<path d="M143.47 225.937C140.47 253.111 138.43 264.404 149.47 280.588C166.03 304.925 199.78 302.872 210.88 277.267C220.87 254.229 224.32 213.859 200.14 198.43C194.827 195.011 188.733 193.018 182.439 192.639C176.144 192.26 169.858 193.509 164.178 196.266C158.498 199.023 153.614 203.196 149.989 208.39C146.364 213.583 144.12 219.624 143.47 225.937Z" fill="#B28B67"/>
<path d="M132.1 245.05C132.641 250.279 135.14 255.105 139.09 258.546C144.37 263.045 149.62 259.029 150.34 252.508C151 246.68 149.05 237.41 142.72 235.297C136.39 233.183 131.5 238.739 132.1 245.05Z" fill="#B28B67"/>
<path d="M223.84 498.863C223.84 498.863 396.46 515.59 394.66 599.379C392.8 686.55 330.61 765.055 330.61 765.055L298 746.486C298 746.486 334 669.762 332.14 617.496C330.64 572.808 165.1 564.233 165.1 564.233L142.27 498.863H223.84Z" fill="#48B8A8"/>
<path d="M283.99 547.989L287.47 583.618C311.62 591.227 330.19 601.734 332.02 615.805C336.1 584.282 314.26 565.652 283.99 547.989Z" fill="#48B8A8"/>
<path d="M194.56 498.863C194.56 498.863 313 538.357 316 587.241C321.52 677.25 282.19 795.883 282.19 795.883H244.81C244.81 795.883 246.91 717.167 251.38 635.612C256.96 533.163 77.38 634.193 112.96 498.863H194.56Z" fill="#48B8A8"/>
<path d="M182.53 240.702C182.14 242.876 182.98 244.838 184.39 245.11C185.8 245.382 187.39 243.781 187.66 241.607C187.93 239.433 187.21 237.441 185.8 237.199C184.39 236.958 182.92 238.497 182.53 240.702Z" fill="#263238"/>
<path d="M207.01 245.11C206.65 247.284 207.46 249.247 208.9 249.518C210.34 249.79 211.9 248.22 212.17 246.016C212.44 243.812 211.72 241.879 210.28 241.607C208.84 241.336 207.4 242.906 207.01 245.11Z" fill="#263238"/>
<path d="M209.65 241.758L215.11 241.185C215.11 241.185 211.72 244.778 209.65 241.758Z" fill="#263238"/>
<path d="M199.87 247.797C200.901 253.038 202.626 258.116 205 262.894C203.748 263.472 202.387 263.772 201.01 263.772C199.633 263.772 198.272 263.472 197.02 262.894L199.87 247.797Z" fill="#263238"/>
<path d="M201.113 281.582H200.933C196.572 279.519 193.16 275.857 191.392 271.346C191.374 271.295 191.367 271.24 191.37 271.186C191.374 271.131 191.389 271.078 191.415 271.03C191.44 270.981 191.475 270.939 191.518 270.905C191.561 270.871 191.61 270.847 191.663 270.833C191.712 270.814 191.764 270.805 191.817 270.807C191.869 270.809 191.921 270.822 191.969 270.844C192.016 270.867 192.059 270.899 192.094 270.938C192.129 270.978 192.156 271.024 192.173 271.075C193.865 275.338 204.191 269.334 208.29 271.346C208.388 271.392 200.893 276.938 200.933 277.039C200.972 277.14 201.424 281.27 201.383 281.371C200.933 277.039 201.316 281.469 201.27 281.505C201.223 281.542 201.113 281.582 201.113 281.582Z" fill="#263238"/>
<path d="M179.8 230.919C179.684 230.919 179.569 230.891 179.464 230.839C179.36 230.787 179.27 230.711 179.2 230.617C179.118 230.546 179.052 230.458 179.006 230.359C178.961 230.26 178.937 230.152 178.937 230.043C178.937 229.934 178.961 229.826 179.006 229.727C179.052 229.628 179.118 229.54 179.2 229.469C180.649 228.127 182.397 227.152 184.296 226.627C186.196 226.102 188.192 226.041 190.12 226.45C190.331 226.506 190.511 226.644 190.621 226.834C190.73 227.024 190.761 227.249 190.705 227.462C190.649 227.674 190.512 227.855 190.324 227.965C190.135 228.076 189.911 228.106 189.7 228.05C188.026 227.715 186.296 227.79 184.657 228.268C183.018 228.746 181.516 229.614 180.28 230.798C180.135 230.884 179.968 230.926 179.8 230.919Z" fill="#263238"/>
<path d="M220.39 235.297C220.231 235.286 220.078 235.232 219.946 235.142C219.814 235.052 219.709 234.928 219.64 234.784C219.002 233.198 218.001 231.786 216.718 230.664C215.436 229.541 213.908 228.739 212.26 228.322C212.042 228.285 211.847 228.163 211.717 227.982C211.588 227.801 211.535 227.576 211.57 227.356C211.614 227.142 211.738 226.953 211.917 226.829C212.096 226.705 212.316 226.656 212.53 226.691C214.454 227.139 216.242 228.048 217.741 229.341C219.24 230.635 220.407 232.274 221.14 234.119C221.189 234.217 221.217 234.325 221.222 234.435C221.228 234.545 221.21 234.654 221.17 234.757C221.131 234.859 221.07 234.952 220.993 235.03C220.915 235.107 220.822 235.167 220.72 235.206C220.621 235.268 220.506 235.3 220.39 235.297Z" fill="#263238"/>
<path d="M283.24 834.623C280.03 834.623 275.68 831.241 273.25 829.067C273.177 829.013 273.122 828.938 273.095 828.85C273.068 828.763 273.07 828.67 273.1 828.584C273.127 828.497 273.178 828.42 273.247 828.361C273.316 828.302 273.401 828.264 273.49 828.252C274.6 828.252 284.35 827.346 286.39 830.033C286.609 830.316 286.75 830.652 286.797 831.008C286.845 831.363 286.797 831.725 286.66 832.056C286.495 832.638 286.185 833.168 285.76 833.596C285.335 834.024 284.808 834.335 284.23 834.502C283.905 834.575 283.573 834.616 283.24 834.623ZM274.66 829.097C278.62 832.418 282.04 834.109 283.99 833.596C284.424 833.474 284.818 833.24 285.134 832.916C285.45 832.593 285.676 832.193 285.79 831.754C285.904 831.585 285.964 831.385 285.964 831.18C285.964 830.976 285.904 830.776 285.79 830.607C284.35 828.856 278.05 828.886 274.66 829.097Z" fill="#FA3B5A"/>
<path d="M273.55 829.188C273.468 829.194 273.386 829.174 273.316 829.131C273.246 829.087 273.191 829.023 273.16 828.946C273.123 828.876 273.104 828.799 273.104 828.72C273.104 828.641 273.123 828.563 273.16 828.493C273.31 828.221 277 821.307 280.78 820.401C281.234 820.269 281.712 820.247 282.176 820.336C282.64 820.425 283.077 820.623 283.45 820.914C283.872 821.134 284.203 821.498 284.384 821.94C284.566 822.382 284.585 822.874 284.44 823.33C283.63 826.108 276.88 829.097 273.58 829.188H273.55ZM281.59 821.216H280.96C278.26 821.85 275.44 826.289 274.36 828.07C277.51 827.587 282.91 825.051 283.54 822.968C283.54 822.635 283.69 822.122 282.91 821.579C282.518 821.323 282.057 821.196 281.59 821.216Z" fill="#48B8A8"/>
<path d="M185.14 237.199L190.63 236.625C190.63 236.625 187.21 240.249 185.14 237.199Z" fill="#263238"/>
<path d="M111.28 492.371L110.41 502.365C110.02 503.15 110.92 503.935 112.21 503.935H224.38C225.4 503.935 226.21 503.452 226.27 502.818L227.29 492.824C227.29 492.129 226.48 491.525 225.4 491.525H113.08C112.734 491.506 112.388 491.573 112.074 491.72C111.76 491.868 111.487 492.091 111.28 492.371Z" fill="#263238"/>
<path d="M126.37 504.962H123.37C122.77 504.962 122.32 504.66 122.35 504.267L123.76 491.284C123.76 490.891 124.33 490.589 124.93 490.589H127.93C128.53 490.589 128.98 490.891 128.95 491.284L127.54 504.267C127.48 504.66 127 504.962 126.37 504.962Z" fill="#407BFF"/>
<path opacity="0.6" d="M126.37 504.962H123.37C122.77 504.962 122.32 504.66 122.35 504.267L123.76 491.284C123.76 490.891 124.33 490.589 124.93 490.589H127.93C128.53 490.589 128.98 490.891 128.95 491.284L127.54 504.267C127.48 504.66 127 504.962 126.37 504.962Z" fill="#FAFAFA"/>
<path d="M215.95 504.962H212.95C212.35 504.962 211.9 504.66 211.96 504.267L213.37 491.284C213.37 490.891 213.91 490.589 214.51 490.589H217.51C218.11 490.589 218.56 490.891 218.5 491.284L217.09 504.267C217 504.66 216.55 504.962 215.95 504.962Z" fill="#407BFF"/>
<path opacity="0.6" d="M215.95 504.962H212.95C212.35 504.962 211.9 504.66 211.96 504.267L213.37 491.284C213.37 490.891 213.91 490.589 214.51 490.589H217.51C218.11 490.589 218.56 490.891 218.5 491.284L217.09 504.267C217 504.66 216.55 504.962 215.95 504.962Z" fill="#FAFAFA"/>
<path d="M171.16 504.962H168.16C167.56 504.962 167.08 504.66 167.14 504.267L168.55 491.284C168.55 490.891 169.12 490.589 169.72 490.589H172.72C173.32 490.589 173.77 490.891 173.74 491.284L172.33 504.267C172.27 504.66 171.76 504.962 171.16 504.962Z" fill="#DDE3E9"/>
<path d="M119.38 375.489L105.07 387.748C108.07 404.053 110.17 417.64 111.49 429.718C114.16 417.61 121 384.758 119.38 375.489Z" fill="#FA3B5A"/>
<path d="M422.53 421.716H232.5L219.5 480.5L206.5 542L394.33 537.39L422.53 421.716Z" fill="#FAFAFA"/>
<path d="M324 518L205.228 544L129 523.931L129.778 518H324Z" fill="#263238"/>
<path d="M109.84 371.956C107.53 379.656 105.01 387.597 102.76 395.447C100.51 403.298 98.14 411.209 96.1 419.089C94.06 426.97 92.11 434.82 90.61 442.52C89.89 446.355 89.2 450.189 88.75 453.813C88.4292 456.357 88.2589 458.918 88.24 461.482C88.8996 463.539 90.0299 465.411 91.54 466.947C93.8164 469.434 96.3396 471.68 99.07 473.65C105.316 478.128 111.907 482.096 118.78 485.517C125.83 489.17 133.21 492.492 140.74 495.571C148.27 498.651 155.95 501.61 163.48 504.63L160 518.277C151.39 516.919 143.2 514.986 134.86 512.903C126.52 510.819 118.39 508.072 110.2 505.052C101.737 501.938 93.5821 498.036 85.84 493.397C81.5376 490.807 77.5157 487.771 73.84 484.339C69.2222 480.144 65.7252 474.849 63.67 468.94C63.1047 467.14 62.7129 465.29 62.5 463.414V461.965V460.878V458.946C62.5 456.409 62.5 453.994 62.5 451.609C62.74 446.898 63.25 442.55 63.91 438.021C65.14 429.204 66.91 420.69 68.77 412.296C72.6008 395.59 77.2769 379.093 82.78 362.868L109.84 371.956Z" fill="#B28B67"/>
<path d="M93.2799 332.341C82.1799 335.753 65.1699 379.656 65.1699 379.656L108.28 410.665C108.28 410.665 127.66 373.134 122.98 358.671C118 343.483 106 328.325 93.2799 332.341Z" fill="#FA3B5A"/>
<path d="M157.87 505.475L183.79 498.863L171.43 523.894C171.43 523.894 153.94 524.648 148.15 514.835L157.87 505.475Z" fill="#B28B67"/>
<path d="M204.7 508.374L193.24 528.785L171.43 523.894L183.79 498.863L204.7 508.374Z" fill="#B28B67"/>
<path d="M428.53 421.716H233.92L205.72 537.39H400.33L428.53 421.716Z" fill="#263238"/>
<path d="M400.33 537.39L399.55 543.792H204.91L205.69 537.39H400.33Z" fill="#263238"/>
<path d="M141.67 324.068C141.97 326.363 144.49 337.686 165.91 341.943C165.91 341.943 159.55 348.918 155.95 365.615C155.95 365.615 118.39 350.79 129.79 326.755C129.88 326.563 130.014 326.394 130.181 326.263C130.347 326.132 130.542 326.042 130.75 326L141.19 323.766C141.241 323.753 141.295 323.75 141.347 323.758C141.399 323.766 141.45 323.785 141.494 323.813C141.539 323.841 141.578 323.879 141.608 323.922C141.638 323.966 141.659 324.016 141.67 324.068Z" fill="#F0F0F0"/>
<path d="M189.52 325.819C192.1 328.567 199.15 337.897 181.33 342.184C181.33 342.184 192.16 348.223 195.76 364.921C195.76 364.921 222.43 346.472 198.16 326.423C198.132 326.41 198.101 326.403 198.07 326.403C198.039 326.403 198.008 326.41 197.98 326.423L189.85 325.276C189.788 325.28 189.729 325.3 189.676 325.332C189.623 325.365 189.579 325.409 189.547 325.462C189.515 325.516 189.495 325.576 189.491 325.638C189.486 325.7 189.496 325.762 189.52 325.819Z" fill="#E6E6E6"/>
<path fill-rule="evenodd" clip-rule="evenodd" d="M177.773 218.9C177.269 217.351 175.914 216.024 174.088 215.63C173.645 215.535 173.187 215.496 172.732 215.512C172.568 215.518 172.522 215.559 172.446 215.459C172.389 215.385 172.388 215.204 172.365 215.117C172.292 214.846 172.201 214.578 172.089 214.317C171.707 213.428 171.065 212.641 170.291 211.978C168.843 210.738 166.887 209.882 164.854 209.727C163.742 209.643 162.637 209.801 161.586 210.117C161.041 210.281 160.513 210.486 159.999 210.711C159.844 210.779 159.342 211.112 159.186 211.09C159.015 211.067 158.67 210.693 158.53 210.6C156.806 209.442 154.676 208.986 152.528 209C150.103 209.016 147.768 209.122 145.746 210.416C145.318 210.689 144.91 210.989 144.522 211.305C144.317 211.471 144.119 211.644 143.93 211.823C143.817 211.932 143.706 212.042 143.599 212.156C143.418 212.349 143.447 212.413 143.193 212.278C142.22 211.761 141.092 211.519 139.956 211.641C139.281 211.713 138.625 211.891 138.002 212.124C137.79 212.203 137.299 212.52 137.073 212.523C136.848 212.526 136.364 212.232 136.133 212.158C134.885 211.755 133.54 211.655 132.228 211.842C130.874 212.034 129.545 212.506 128.399 213.159C127.847 213.473 127.366 213.821 126.98 214.288C126.813 214.49 126.662 214.703 126.473 214.89C126.362 214.999 126.143 215.112 126.083 215.25C126.119 215.167 124.603 214.656 124.46 214.623C123.699 214.449 122.923 214.485 122.177 214.699C120.774 215.103 119.567 216.009 118.576 216.938C118.067 217.416 117.621 217.943 117.243 218.505C117.061 218.774 116.896 219.051 116.744 219.334C116.67 219.47 116.622 219.642 116.525 219.765C116.4 219.924 116.316 219.927 116.09 219.997C114.942 220.349 113.895 220.944 113.098 221.749C112.292 222.564 111.769 223.567 111.55 224.623C111.537 224.685 111.529 224.943 111.487 224.977C111.43 225.023 111.199 225.003 111.112 225.012C110.81 225.043 110.509 225.089 110.213 225.15C109.667 225.264 109.135 225.43 108.632 225.648C106.672 226.497 105.27 228.088 104.584 229.879C103.864 231.758 103.876 233.911 104.737 235.755C104.876 236.053 105.041 236.342 105.235 236.616C105.355 236.784 105.393 236.784 105.316 236.96C105.229 237.156 105.072 237.347 104.969 237.538C104.635 238.163 104.401 238.826 104.253 239.503C104.011 240.613 103.891 241.78 104.13 242.899C104.241 243.419 104.434 243.927 104.729 244.389C104.88 244.625 105.056 244.849 105.255 245.056C105.358 245.163 105.467 245.266 105.582 245.364C105.647 245.421 105.733 245.47 105.789 245.533C105.925 245.686 105.954 245.56 105.884 245.784C105.786 246.098 105.563 246.408 105.427 246.714C105.287 247.029 105.16 247.348 105.044 247.671C104.809 248.323 104.61 248.988 104.486 249.664C104.247 250.962 104.289 252.345 104.991 253.537C105.291 254.046 105.721 254.493 106.243 254.841C106.499 255.011 106.775 255.158 107.066 255.278C107.215 255.34 107.405 255.367 107.473 255.493C107.547 255.629 107.438 255.898 107.413 256.05C107.197 257.37 107.089 258.756 107.538 260.05C107.951 261.242 108.86 262.294 110.041 262.99C112.331 264.342 115.419 264.266 117.826 263.184C118.453 262.902 119.04 262.552 119.564 262.139C120.897 263.709 123.64 263.66 125.589 263.212C128.017 262.654 129.965 261.177 131.087 259.236C132.622 260.871 135.842 260.341 136.906 258.567C137.167 258.133 137.321 257.655 137.398 257.171C137.438 256.916 137.412 256.659 137.442 256.407C137.48 256.085 137.726 255.772 137.867 255.461C138.142 254.855 138.313 254.229 138.32 253.576C138.324 253.234 138.275 252.902 138.238 252.563C138.204 252.259 138.301 251.975 138.356 251.674C137.733 251.764 136.975 251.617 136.388 251.459C135.812 251.304 135.273 250.895 134.867 250.523C133.924 249.657 133.347 248.521 132.953 247.392C132.088 244.912 132.443 241.937 135.293 240.576C136.62 239.942 140.598 239.944 142.179 240.258C143.842 240.587 145.727 243.798 145.82 244.099C145.877 244.286 145.848 244.517 146.044 244.642C146.475 244.915 147.186 244.441 147.504 244.206C148.052 243.802 148.443 243.263 148.782 242.718C149.52 241.53 150.115 240.255 150.536 238.954C150.86 237.951 151.067 236.917 151.491 235.939C151.912 234.966 152.577 234.097 153.61 233.546C154.734 232.947 156.022 232.631 157.256 232.254C158.479 231.881 159.681 231.425 160.629 230.632C160.838 230.458 161.04 230.273 161.208 230.068C161.34 229.906 161.471 229.596 161.673 229.494C161.987 229.334 162.445 229.749 162.716 229.9C164.055 230.644 165.171 231.682 166.072 232.815C166.968 233.942 167.703 235.027 168.3 236.286C168.743 237.219 169.019 238.415 169.798 239.18C170.146 239.522 172.732 239.728 173.569 239.43C174.407 239.132 175.345 238.357 175.626 237.872C175.914 237.375 175.983 236.83 175.86 236.286C175.787 235.966 175.64 235.667 175.559 235.353C175.491 235.089 175.429 234.839 175.282 234.597C175.004 234.139 174.529 233.81 173.955 233.672C174.552 233.191 175.046 232.615 175.388 231.971C175.744 231.302 176.045 230.489 176.131 229.755C176.2 229.159 176.093 228.541 175.72 228.029C175.329 227.491 174.636 227.14 174.036 226.805C174.952 226.178 175.736 225.415 176.38 224.571C177.634 222.928 178.409 220.858 177.773 218.9Z" fill="#263238"/>
<path fill-rule="evenodd" clip-rule="evenodd" d="M177.773 218.9C177.269 217.351 175.914 216.024 174.088 215.63C173.645 215.535 173.187 215.496 172.732 215.512C172.568 215.518 172.522 215.559 172.446 215.459C172.389 215.385 172.388 215.204 172.365 215.117C172.292 214.846 172.201 214.578 172.089 214.317C171.707 213.428 171.065 212.641 170.291 211.978C168.843 210.738 166.887 209.882 164.854 209.727C163.742 209.643 162.637 209.801 161.586 210.117C161.041 210.281 160.513 210.486 159.999 210.711C159.844 210.779 159.342 211.112 159.186 211.09C159.015 211.067 158.67 210.693 158.53 210.6C156.806 209.442 154.676 208.986 152.528 209C150.103 209.016 147.768 209.122 145.746 210.416C145.318 210.689 144.91 210.989 144.522 211.305C144.317 211.471 144.119 211.644 143.93 211.823C143.817 211.932 143.706 212.042 143.599 212.156C143.418 212.349 143.447 212.413 143.193 212.278C142.22 211.761 141.092 211.519 139.956 211.641C139.281 211.713 138.625 211.891 138.002 212.124C137.79 212.203 137.299 212.52 137.073 212.523C136.848 212.526 136.364 212.232 136.133 212.158C134.885 211.755 133.54 211.655 132.228 211.842C130.874 212.034 129.545 212.506 128.399 213.159C127.847 213.473 127.366 213.821 126.98 214.288C126.813 214.49 126.662 214.703 126.473 214.89C126.362 214.999 126.143 215.112 126.083 215.25C126.119 215.167 124.603 214.656 124.46 214.623C123.699 214.449 122.923 214.485 122.177 214.699C120.774 215.103 119.567 216.009 118.576 216.938C118.067 217.416 117.621 217.943 117.243 218.505C117.061 218.774 116.896 219.051 116.744 219.334C116.67 219.47 116.622 219.642 116.525 219.765C116.4 219.924 116.316 219.927 116.09 219.997C114.942 220.349 113.895 220.944 113.098 221.749C112.292 222.564 111.769 223.567 111.55 224.623C111.537 224.685 111.529 224.943 111.487 224.977C111.43 225.023 111.199 225.003 111.112 225.012C110.81 225.043 110.509 225.089 110.213 225.15C109.667 225.264 109.135 225.43 108.632 225.648C106.672 226.497 105.27 228.088 104.584 229.879C103.864 231.758 103.876 233.911 104.737 235.755C104.876 236.053 105.041 236.342 105.235 236.616C105.355 236.784 105.393 236.784 105.316 236.96C105.229 237.156 105.072 237.347 104.969 237.538C104.635 238.163 104.401 238.826 104.253 239.503C104.011 240.613 103.891 241.78 104.13 242.899C104.241 243.419 104.434 243.927 104.729 244.389C104.88 244.625 105.056 244.849 105.255 245.056C105.358 245.163 105.467 245.266 105.582 245.364C105.647 245.421 105.733 245.47 105.789 245.533C105.925 245.686 105.954 245.56 105.884 245.784C105.786 246.098 105.563 246.408 105.427 246.714C105.287 247.029 105.16 247.348 105.044 247.671C104.809 248.323 104.61 248.988 104.486 249.664C104.247 250.962 104.289 252.345 104.991 253.537C105.291 254.046 105.721 254.493 106.243 254.841C106.499 255.011 106.775 255.158 107.066 255.278C107.215 255.34 107.405 255.367 107.473 255.493C107.547 255.629 107.438 255.898 107.413 256.05C107.197 257.37 107.089 258.756 107.538 260.05C107.951 261.242 108.86 262.294 110.041 262.99C112.331 264.342 115.419 264.266 117.826 263.184C118.453 262.902 119.04 262.552 119.564 262.139C120.897 263.709 123.64 263.66 125.589 263.212C128.017 262.654 129.965 261.177 131.087 259.236C132.622 260.871 135.842 260.341 136.906 258.567C137.167 258.133 137.321 257.655 137.398 257.171C137.438 256.916 137.412 256.659 137.442 256.407C137.48 256.085 137.726 255.772 137.867 255.461C138.142 254.855 138.313 254.229 138.32 253.576C138.324 253.234 138.275 252.902 138.238 252.563C138.204 252.259 138.301 251.975 138.356 251.674C137.733 251.764 136.975 251.617 136.388 251.459C135.812 251.304 135.273 250.895 134.867 250.523C133.924 249.657 133.347 248.521 132.953 247.392C132.088 244.912 132.443 241.937 135.293 240.576C136.62 239.942 140.598 239.944 142.179 240.258C143.842 240.587 145.727 243.798 145.82 244.099C145.877 244.286 145.848 244.517 146.044 244.642C146.475 244.915 147.186 244.441 147.504 244.206C148.052 243.802 148.443 243.263 148.782 242.718C149.52 241.53 150.115 240.255 150.536 238.954C150.86 237.951 151.067 236.917 151.491 235.939C151.912 234.966 152.577 234.097 153.61 233.546C154.734 232.947 156.022 232.631 157.256 232.254C158.479 231.881 159.681 231.425 160.629 230.632C160.838 230.458 161.04 230.273 161.208 230.068C161.34 229.906 161.471 229.596 161.673 229.494C161.987 229.334 162.445 229.749 162.716 229.9C164.055 230.644 165.171 231.682 166.072 232.815C166.968 233.942 167.703 235.027 168.3 236.286C168.743 237.219 169.019 238.415 169.798 239.18C170.146 239.522 172.732 239.728 173.569 239.43C174.407 239.132 175.345 238.357 175.626 237.872C175.914 237.375 175.983 236.83 175.86 236.286C175.787 235.966 175.64 235.667 175.559 235.353C175.491 235.089 175.429 234.839 175.282 234.597C175.004 234.139 174.529 233.81 173.955 233.672C174.552 233.191 175.046 232.615 175.388 231.971C175.744 231.302 176.045 230.489 176.131 229.755C176.2 229.159 176.093 228.541 175.72 228.029C175.329 227.491 174.636 227.14 174.036 226.805C174.952 226.178 175.736 225.415 176.38 224.571C177.634 222.928 178.409 220.858 177.773 218.9Z" fill="#263238"/>
<path fill-rule="evenodd" clip-rule="evenodd" d="M101.9 223.187C100.351 223.603 99.0238 224.72 98.6302 226.225C98.5347 226.59 98.4961 226.967 98.5122 227.343C98.5179 227.478 98.5592 227.515 98.4591 227.578C98.385 227.625 98.2038 227.626 98.1166 227.645C97.8456 227.705 97.578 227.78 97.3173 227.872C96.4281 228.187 95.6412 228.717 94.9783 229.355C93.7381 230.548 92.8822 232.161 92.7273 233.836C92.6426 234.753 92.8008 235.664 93.1175 236.531C93.2814 236.98 93.4855 237.415 93.7112 237.839C93.7791 237.966 94.1118 238.38 94.0903 238.508C94.0665 238.65 93.6933 238.934 93.5996 239.049C92.4417 240.471 91.9864 242.227 92.0003 243.997C92.016 245.996 92.122 247.921 93.4156 249.588C93.6894 249.941 93.9893 250.277 94.305 250.597C94.4712 250.765 94.6436 250.929 94.8232 251.084C94.9316 251.178 95.0424 251.27 95.1562 251.358C95.3493 251.507 95.4127 251.483 95.278 251.692C94.7605 252.495 94.5185 253.424 94.6407 254.361C94.7133 254.917 94.8905 255.458 95.1238 255.971C95.2032 256.146 95.5199 256.551 95.523 256.737C95.526 256.922 95.2324 257.322 95.1578 257.512C94.7546 258.541 94.6552 259.65 94.8415 260.731C95.0338 261.847 95.5062 262.942 96.1591 263.888C96.4732 264.342 96.8212 264.739 97.2882 265.057C97.4898 265.195 97.7031 265.319 97.89 265.475C97.9995 265.566 98.1118 265.747 98.2503 265.796C98.1674 265.767 97.6561 267.016 97.6234 267.134C97.4493 267.762 97.4846 268.401 97.6995 269.016C98.1035 270.173 99.0095 271.167 99.9384 271.985C100.416 272.405 100.943 272.772 101.505 273.084C101.774 273.233 102.051 273.37 102.334 273.495C102.47 273.556 102.642 273.596 102.765 273.675C102.924 273.778 102.927 273.848 102.997 274.034C103.349 274.98 103.944 275.843 104.749 276.5C105.564 277.165 106.567 277.596 107.623 277.777C107.685 277.787 107.943 277.794 107.977 277.828C108.023 277.875 108.003 278.065 108.012 278.137C108.043 278.387 108.089 278.634 108.15 278.878C108.264 279.329 108.43 279.767 108.648 280.182C109.497 281.798 111.088 282.953 112.879 283.519C114.758 284.112 116.911 284.102 118.755 283.393C119.053 283.278 119.342 283.142 119.616 282.982C119.784 282.883 119.784 282.851 119.96 282.915C120.156 282.987 120.347 283.117 120.538 283.201C121.163 283.477 121.826 283.669 122.503 283.791C123.613 283.991 124.78 284.09 125.899 283.893C126.419 283.801 126.927 283.642 127.389 283.399C127.625 283.275 127.849 283.13 128.056 282.966C128.163 282.881 128.266 282.79 128.364 282.696C128.421 282.642 128.47 282.571 128.533 282.525C128.686 282.413 128.56 282.389 128.784 282.447C129.098 282.528 129.408 282.711 129.714 282.824C130.029 282.939 130.348 283.044 130.671 283.14C131.323 283.333 131.988 283.497 132.664 283.599C133.962 283.796 135.345 283.762 136.537 283.183C137.046 282.936 137.493 282.581 137.841 282.151C138.011 281.94 138.158 281.712 138.278 281.473C138.34 281.35 138.367 281.193 138.493 281.137C138.629 281.077 138.898 281.166 139.05 281.187C140.37 281.364 141.756 281.454 143.05 281.084C144.242 280.743 145.294 279.994 145.99 279.02C147.342 277.132 147.266 274.587 146.184 272.603C145.902 272.086 145.552 271.602 145.139 271.171C146.709 270.071 146.66 267.81 146.212 266.204C145.654 264.203 144.177 262.597 142.236 261.672C143.871 260.407 143.341 257.752 141.567 256.874C141.133 256.66 140.655 256.532 140.171 256.47C139.916 256.437 139.659 256.458 139.407 256.433C139.085 256.401 138.772 256.199 138.461 256.082C137.855 255.856 137.229 255.715 136.576 255.709C136.234 255.706 135.902 255.746 135.563 255.777C135.259 255.805 134.975 255.725 134.674 255.68C134.764 256.193 134.617 256.818 134.459 257.302C134.304 257.776 133.895 258.221 133.523 258.556C132.657 259.333 131.521 259.808 130.392 260.133C127.912 260.846 124.937 260.554 123.576 258.205C122.942 257.11 122.944 253.831 123.258 252.528C123.587 251.157 126.798 249.603 127.099 249.527C127.286 249.48 127.517 249.503 127.642 249.342C127.915 248.987 127.441 248.401 127.206 248.139C126.802 247.687 126.263 247.364 125.718 247.085C124.53 246.477 123.255 245.986 121.954 245.639C120.951 245.372 119.917 245.201 118.939 244.852C117.966 244.505 117.097 243.957 116.546 243.105C115.947 242.179 115.631 241.117 115.254 240.1C114.881 239.091 114.425 238.101 113.632 237.319C113.458 237.147 113.273 236.98 113.068 236.842C112.906 236.733 112.596 236.625 112.494 236.459C112.334 236.2 112.749 235.823 112.9 235.599C113.644 234.496 114.682 233.575 115.815 232.833C116.942 232.094 118.027 231.488 119.286 230.996C120.219 230.631 121.415 230.403 122.18 229.761C122.522 229.474 122.728 227.343 122.43 226.653C122.132 225.962 121.357 225.188 120.872 224.957C120.375 224.72 119.83 224.663 119.286 224.764C118.966 224.824 118.667 224.946 118.353 225.012C118.089 225.068 117.839 225.119 117.597 225.24C117.139 225.47 116.81 225.861 116.672 226.334C116.191 225.842 115.615 225.435 114.971 225.153C114.302 224.86 113.489 224.611 112.755 224.541C112.159 224.484 111.541 224.572 111.029 224.88C110.491 225.202 110.14 225.773 109.805 226.268C109.178 225.513 108.415 224.866 107.571 224.335C105.928 223.302 103.858 222.663 101.9 223.187Z" fill="#263238"/>
<path fill-rule="evenodd" clip-rule="evenodd" d="M86.9004 197.187C85.3507 197.603 84.0238 198.72 83.6302 200.225C83.5347 200.59 83.4961 200.967 83.5122 201.343C83.5179 201.478 83.5592 201.515 83.4591 201.578C83.385 201.625 83.2038 201.626 83.1166 201.645C82.8456 201.705 82.578 201.78 82.3173 201.872C81.4281 202.187 80.6412 202.717 79.9783 203.355C78.7381 204.548 77.8822 206.161 77.7273 207.836C77.6426 208.753 77.8008 209.664 78.1175 210.531C78.2814 210.98 78.4855 211.415 78.7112 211.839C78.7791 211.966 79.1118 212.38 79.0903 212.508C79.0665 212.65 78.6933 212.934 78.5996 213.049C77.4417 214.471 76.9864 216.227 77.0003 217.997C77.016 219.996 77.122 221.921 78.4156 223.588C78.6894 223.941 78.9893 224.277 79.305 224.597C79.4712 224.765 79.6436 224.929 79.8232 225.084C79.9316 225.178 80.0424 225.27 80.1562 225.358C80.3493 225.507 80.4127 225.483 80.278 225.692C79.7605 226.495 79.5185 227.424 79.6407 228.361C79.7133 228.917 79.8905 229.458 80.1238 229.971C80.2032 230.146 80.5199 230.551 80.523 230.737C80.526 230.922 80.2324 231.322 80.1578 231.512C79.7546 232.541 79.6552 233.65 79.8415 234.731C80.0338 235.847 80.5062 236.942 81.1591 237.888C81.4732 238.342 81.8212 238.739 82.2882 239.057C82.4898 239.195 82.7031 239.319 82.89 239.475C82.9995 239.566 83.1118 239.747 83.2503 239.796C83.1674 239.767 82.6561 241.016 82.6234 241.134C82.4493 241.762 82.4846 242.401 82.6995 243.016C83.1035 244.173 84.0095 245.167 84.9384 245.985C85.4155 246.405 85.9429 246.772 86.5048 247.084C86.774 247.233 87.0508 247.37 87.3335 247.495C87.4705 247.556 87.6418 247.596 87.7652 247.675C87.9242 247.778 87.9272 247.848 87.9966 248.034C88.3485 248.98 88.9443 249.843 89.7494 250.5C90.5639 251.165 91.5669 251.596 92.6232 251.777C92.6854 251.787 92.9432 251.794 92.9769 251.828C93.0233 251.875 93.0028 252.065 93.0118 252.137C93.0428 252.387 93.089 252.634 93.1504 252.878C93.2635 253.329 93.43 253.767 93.6478 254.182C94.4967 255.798 96.0881 256.953 97.8788 257.519C99.7581 258.112 101.911 258.102 103.755 257.393C104.053 257.278 104.342 257.142 104.616 256.982C104.784 256.883 104.784 256.851 104.96 256.915C105.156 256.987 105.347 257.117 105.538 257.201C106.163 257.477 106.826 257.669 107.503 257.791C108.613 257.991 109.78 258.09 110.899 257.893C111.419 257.801 111.927 257.642 112.389 257.399C112.625 257.275 112.849 257.13 113.056 256.966C113.163 256.881 113.266 256.79 113.364 256.696C113.421 256.642 113.47 256.571 113.533 256.525C113.686 256.413 113.56 256.389 113.784 256.447C114.098 256.528 114.408 256.711 114.714 256.824C115.029 256.939 115.348 257.044 115.671 257.14C116.323 257.333 116.988 257.497 117.664 257.599C118.962 257.796 120.345 257.762 121.537 257.183C122.046 256.936 122.493 256.581 122.841 256.151C123.011 255.94 123.158 255.712 123.278 255.473C123.34 255.35 123.367 255.193 123.493 255.137C123.629 255.077 123.898 255.166 124.05 255.187C125.37 255.364 126.756 255.454 128.05 255.084C129.242 254.743 130.294 253.994 130.99 253.02C132.342 251.132 132.266 248.587 131.184 246.603C130.902 246.086 130.552 245.602 130.139 245.171C131.709 244.071 131.66 241.81 131.212 240.204C130.654 238.203 129.177 236.597 127.236 235.672C128.871 234.407 128.341 231.752 126.567 230.874C126.133 230.66 125.655 230.532 125.171 230.47C124.916 230.437 124.659 230.458 124.407 230.433C124.085 230.401 123.772 230.199 123.461 230.082C122.855 229.856 122.229 229.715 121.576 229.709C121.234 229.706 120.902 229.746 120.563 229.777C120.259 229.805 119.975 229.725 119.674 229.68C119.764 230.193 119.617 230.818 119.459 231.302C119.304 231.776 118.895 232.221 118.523 232.556C117.657 233.333 116.521 233.808 115.392 234.133C112.912 234.846 109.937 234.554 108.576 232.205C107.942 231.11 107.944 227.831 108.258 226.528C108.587 225.157 111.798 223.603 112.099 223.527C112.286 223.48 112.517 223.503 112.642 223.342C112.915 222.987 112.441 222.401 112.206 222.139C111.802 221.687 111.263 221.364 110.718 221.085C109.53 220.477 108.255 219.986 106.954 219.639C105.951 219.372 104.917 219.201 103.939 218.852C102.966 218.505 102.097 217.957 101.546 217.105C100.947 216.179 100.631 215.117 100.254 214.1C99.8809 213.091 99.4246 212.101 98.6325 211.319C98.4583 211.147 98.2732 210.98 98.0681 210.842C97.9063 210.733 97.5963 210.625 97.4937 210.459C97.334 210.2 97.7492 209.823 97.9 209.599C98.644 208.496 99.6815 207.575 100.815 206.833C101.942 206.094 103.027 205.488 104.286 204.996C105.219 204.631 106.415 204.403 107.18 203.761C107.522 203.474 107.728 201.343 107.43 200.653C107.132 199.962 106.357 199.188 105.872 198.957C105.375 198.72 104.83 198.663 104.286 198.764C103.966 198.824 103.667 198.946 103.353 199.012C103.089 199.068 102.839 199.119 102.597 199.24C102.139 199.47 101.81 199.861 101.672 200.334C101.191 199.842 100.615 199.435 99.971 199.153C99.3022 198.86 98.4889 198.611 97.7548 198.541C97.1586 198.484 96.5409 198.572 96.0286 198.88C95.4911 199.202 95.1404 199.773 94.8052 200.268C94.178 199.513 93.4152 198.866 92.5707 198.335C90.9284 197.302 88.8583 196.663 86.9004 197.187Z" fill="#263238"/>
<path fill-rule="evenodd" clip-rule="evenodd" d="M220.742 197.72C220.17 196.199 218.632 194.896 216.559 194.51C216.056 194.416 215.537 194.378 215.02 194.394C214.834 194.399 214.782 194.44 214.695 194.342C214.631 194.269 214.63 194.091 214.603 194.005C214.521 193.739 214.418 193.477 214.291 193.221C213.857 192.348 213.128 191.575 212.249 190.924C210.606 189.706 208.385 188.866 206.078 188.714C204.815 188.631 203.561 188.786 202.368 189.097C201.749 189.258 201.15 189.459 200.566 189.68C200.391 189.747 199.82 190.073 199.644 190.052C199.449 190.029 199.058 189.663 198.899 189.571C196.942 188.434 194.524 187.987 192.085 188C189.333 188.016 186.683 188.12 184.387 189.39C183.901 189.659 183.438 189.953 182.998 190.263C182.766 190.426 182.541 190.596 182.326 190.772C182.197 190.878 182.071 190.987 181.95 191.099C181.744 191.288 181.777 191.351 181.489 191.218C180.385 190.71 179.104 190.473 177.815 190.593C177.049 190.664 176.304 190.838 175.597 191.067C175.356 191.145 174.799 191.456 174.542 191.459C174.287 191.462 173.738 191.174 173.475 191.1C172.058 190.705 170.531 190.607 169.042 190.79C167.506 190.979 165.997 191.442 164.696 192.084C164.07 192.392 163.524 192.734 163.085 193.192C162.896 193.39 162.724 193.599 162.51 193.783C162.384 193.89 162.135 194.001 162.068 194.137C162.108 194.055 160.388 193.553 160.225 193.521C159.361 193.35 158.48 193.385 157.633 193.596C156.041 193.992 154.671 194.882 153.546 195.794C152.968 196.263 152.462 196.78 152.032 197.332C151.826 197.596 151.638 197.868 151.466 198.146C151.383 198.28 151.327 198.448 151.217 198.569C151.076 198.726 150.98 198.729 150.724 198.797C149.421 199.142 148.232 199.727 147.328 200.518C146.413 201.317 145.819 202.302 145.57 203.339C145.555 203.4 145.547 203.653 145.499 203.686C145.434 203.732 145.172 203.712 145.073 203.721C144.73 203.751 144.389 203.796 144.053 203.857C143.433 203.968 142.829 204.131 142.258 204.345C140.033 205.179 138.441 206.741 137.662 208.499C136.845 210.344 136.86 212.458 137.836 214.269C137.994 214.561 138.182 214.845 138.402 215.114C138.538 215.279 138.582 215.279 138.494 215.452C138.396 215.644 138.217 215.831 138.1 216.019C137.721 216.633 137.455 217.284 137.288 217.948C137.012 219.039 136.876 220.184 137.147 221.283C137.273 221.793 137.493 222.292 137.828 222.746C137.999 222.978 138.198 223.197 138.424 223.4C138.541 223.506 138.666 223.607 138.796 223.703C138.87 223.758 138.968 223.807 139.031 223.868C139.185 224.019 139.218 223.895 139.138 224.116C139.027 224.424 138.774 224.728 138.62 225.028C138.46 225.337 138.317 225.651 138.185 225.967C137.918 226.608 137.693 227.261 137.552 227.925C137.281 229.199 137.328 230.557 138.125 231.727C138.465 232.227 138.954 232.666 139.546 233.007C139.836 233.174 140.15 233.318 140.48 233.437C140.649 233.497 140.865 233.524 140.943 233.647C141.026 233.781 140.902 234.045 140.874 234.194C140.629 235.491 140.507 236.852 141.016 238.122C141.484 239.292 142.517 240.325 143.857 241.009C146.457 242.335 149.962 242.261 152.694 241.199C153.406 240.922 154.073 240.578 154.667 240.172C156.18 241.714 159.295 241.666 161.506 241.226C164.262 240.679 166.473 239.229 167.747 237.323C169.489 238.928 173.145 238.407 174.353 236.666C174.649 236.24 174.824 235.77 174.911 235.295C174.956 235.045 174.927 234.793 174.961 234.545C175.005 234.229 175.284 233.922 175.444 233.616C175.756 233.021 175.95 232.407 175.958 231.765C175.963 231.43 175.907 231.104 175.864 230.771C175.827 230.472 175.936 230.193 175.998 229.898C175.292 229.986 174.431 229.842 173.765 229.687C173.111 229.535 172.499 229.134 172.038 228.768C170.967 227.917 170.313 226.803 169.866 225.694C168.884 223.259 169.286 220.338 172.521 219.002C174.028 218.38 178.544 218.382 180.339 218.689C182.226 219.013 184.366 222.165 184.471 222.461C184.536 222.645 184.503 222.872 184.726 222.994C185.215 223.262 186.022 222.796 186.382 222.566C187.005 222.169 187.449 221.641 187.834 221.105C188.672 219.938 189.347 218.687 189.824 217.409C190.192 216.425 190.428 215.409 190.908 214.449C191.387 213.494 192.141 212.641 193.314 212.1C194.59 211.511 196.052 211.201 197.453 210.831C198.841 210.465 200.206 210.017 201.282 209.239C201.518 209.068 201.748 208.886 201.939 208.685C202.089 208.526 202.238 208.222 202.467 208.121C202.823 207.964 203.343 208.372 203.651 208.52C205.17 209.25 206.438 210.269 207.46 211.382C208.477 212.489 209.311 213.554 209.989 214.79C210.492 215.706 210.806 216.88 211.69 217.631C212.085 217.967 215.02 218.17 215.97 217.877C216.921 217.584 217.986 216.824 218.305 216.347C218.632 215.859 218.71 215.324 218.571 214.79C218.488 214.475 218.321 214.182 218.229 213.874C218.152 213.614 218.082 213.369 217.915 213.132C217.599 212.682 217.06 212.359 216.409 212.223C217.086 211.751 217.647 211.185 218.036 210.553C218.439 209.897 218.781 209.098 218.878 208.377C218.957 207.792 218.835 207.186 218.412 206.683C217.968 206.155 217.181 205.811 216.5 205.481C217.54 204.866 218.43 204.117 219.162 203.288C220.584 201.675 221.465 199.643 220.742 197.72Z" fill="#263238"/>
<path fill-rule="evenodd" clip-rule="evenodd" d="M224.742 177.62C224.17 175.958 222.632 174.535 220.559 174.112C220.056 174.01 219.537 173.969 219.02 173.986C218.834 173.992 218.782 174.036 218.695 173.929C218.631 173.849 218.63 173.655 218.603 173.561C218.521 173.271 218.418 172.984 218.291 172.704C217.857 171.75 217.128 170.906 216.249 170.195C214.606 168.864 212.385 167.946 210.078 167.78C208.815 167.689 207.561 167.859 206.368 168.199C205.749 168.375 205.15 168.594 204.566 168.836C204.391 168.909 203.82 169.265 203.644 169.242C203.449 169.217 203.058 168.816 202.899 168.716C200.942 167.474 198.524 166.985 196.085 167C193.333 167.017 190.683 167.131 188.387 168.519C187.901 168.812 187.438 169.134 186.998 169.473C186.766 169.651 186.541 169.836 186.326 170.029C186.197 170.145 186.071 170.264 185.95 170.386C185.744 170.593 185.777 170.661 185.489 170.516C184.385 169.961 183.104 169.702 181.815 169.833C181.049 169.911 180.304 170.101 179.597 170.351C179.356 170.436 178.799 170.776 178.542 170.779C178.287 170.782 177.738 170.468 177.475 170.387C176.058 169.955 174.531 169.848 173.042 170.048C171.506 170.254 169.997 170.761 168.696 171.462C168.07 171.799 167.524 172.172 167.085 172.673C166.896 172.889 166.724 173.118 166.51 173.318C166.384 173.436 166.135 173.556 166.068 173.705C166.108 173.616 164.388 173.067 164.225 173.032C163.361 172.846 162.48 172.883 161.633 173.114C160.041 173.547 158.671 174.519 157.546 175.516C156.968 176.028 156.462 176.593 156.032 177.196C155.826 177.485 155.638 177.782 155.466 178.085C155.383 178.232 155.327 178.416 155.217 178.548C155.076 178.719 154.98 178.722 154.724 178.796C153.421 179.174 152.232 179.813 151.328 180.677C150.413 181.55 149.819 182.626 149.57 183.759C149.555 183.826 149.547 184.103 149.499 184.139C149.434 184.189 149.172 184.167 149.073 184.176C148.73 184.21 148.389 184.259 148.053 184.325C147.433 184.446 146.829 184.625 146.258 184.859C144.033 185.769 142.441 187.476 141.662 189.397C140.845 191.413 140.86 193.723 141.836 195.701C141.994 196.021 142.182 196.331 142.402 196.624C142.538 196.804 142.582 196.805 142.494 196.994C142.396 197.204 142.217 197.408 142.1 197.614C141.721 198.284 141.455 198.995 141.288 199.721C141.012 200.912 140.876 202.164 141.147 203.365C141.273 203.922 141.493 204.467 141.828 204.963C141.999 205.216 142.198 205.456 142.424 205.678C142.541 205.794 142.666 205.904 142.796 206.009C142.87 206.069 142.968 206.122 143.031 206.189C143.185 206.354 143.218 206.219 143.138 206.46C143.027 206.797 142.774 207.129 142.62 207.457C142.46 207.795 142.317 208.137 142.185 208.483C141.918 209.183 141.693 209.896 141.552 210.622C141.281 212.014 141.328 213.498 142.125 214.776C142.465 215.322 142.954 215.802 143.546 216.175C143.836 216.357 144.15 216.515 144.48 216.644C144.649 216.71 144.865 216.739 144.943 216.874C145.026 217.02 144.902 217.309 144.874 217.472C144.629 218.888 144.507 220.375 145.016 221.763C145.484 223.041 146.517 224.17 147.857 224.917C150.457 226.367 153.962 226.285 156.694 225.124C157.406 224.822 158.073 224.446 158.667 224.003C160.18 225.688 163.295 225.635 165.506 225.155C168.262 224.557 170.473 222.972 171.747 220.89C173.489 222.644 177.145 222.075 178.353 220.172C178.649 219.706 178.824 219.193 178.911 218.674C178.956 218.401 178.927 218.125 178.961 217.854C179.005 217.509 179.284 217.174 179.444 216.84C179.756 216.19 179.95 215.518 179.958 214.817C179.963 214.451 179.907 214.095 179.864 213.732C179.827 213.405 179.936 213.1 179.998 212.778C179.292 212.874 178.431 212.716 177.765 212.547C177.111 212.38 176.499 211.942 176.038 211.542C174.967 210.613 174.313 209.396 173.866 208.184C172.884 205.524 173.286 202.332 176.521 200.873C178.028 200.192 182.544 200.195 184.339 200.531C186.226 200.884 188.366 204.328 188.471 204.652C188.536 204.852 188.503 205.1 188.726 205.234C189.215 205.527 190.022 205.018 190.382 204.767C191.005 204.333 191.449 203.755 191.834 203.17C192.672 201.895 193.347 200.528 193.824 199.132C194.192 198.056 194.428 196.947 194.908 195.898C195.387 194.855 196.141 193.922 197.314 193.331C198.59 192.688 200.052 192.349 201.453 191.945C202.841 191.545 204.206 191.055 205.282 190.206C205.518 190.019 205.748 189.82 205.939 189.6C206.089 189.427 206.238 189.094 206.467 188.984C206.823 188.813 207.343 189.258 207.651 189.42C209.17 190.218 210.438 191.331 211.46 192.547C212.477 193.756 213.311 194.92 213.989 196.27C214.492 197.272 214.806 198.554 215.69 199.375C216.085 199.741 219.02 199.963 219.97 199.643C220.921 199.323 221.986 198.492 222.305 197.972C222.632 197.439 222.71 196.854 222.571 196.27C222.488 195.927 222.321 195.606 222.229 195.269C222.152 194.986 222.082 194.718 221.915 194.459C221.599 193.967 221.06 193.614 220.409 193.466C221.086 192.95 221.647 192.332 222.036 191.642C222.439 190.924 222.781 190.052 222.878 189.264C222.957 188.625 222.835 187.962 222.412 187.412C221.968 186.836 221.181 186.46 220.5 186.1C221.54 185.427 222.43 184.609 223.162 183.703C224.584 181.941 225.465 179.721 224.742 177.62Z" fill="#263238"/>
<path fill-rule="evenodd" clip-rule="evenodd" d="M205.791 164.72C205.328 163.199 204.083 161.896 202.405 161.51C201.998 161.416 201.578 161.378 201.159 161.394C201.009 161.399 200.966 161.44 200.896 161.342C200.844 161.269 200.843 161.091 200.822 161.005C200.755 160.739 200.672 160.477 200.569 160.221C200.217 159.348 199.627 158.575 198.916 157.924C197.586 156.706 195.788 155.866 193.92 155.714C192.898 155.631 191.883 155.786 190.917 156.097C190.416 156.258 189.931 156.459 189.458 156.68C189.316 156.747 188.855 157.073 188.712 157.052C188.554 157.029 188.237 156.663 188.109 156.571C186.524 155.434 184.567 154.987 182.593 155C180.365 155.016 178.219 155.12 176.361 156.39C175.968 156.659 175.593 156.953 175.236 157.263C175.048 157.426 174.866 157.596 174.693 157.772C174.588 157.878 174.486 157.987 174.388 158.099C174.222 158.288 174.248 158.351 174.015 158.218C173.121 157.71 172.084 157.473 171.041 157.593C170.421 157.664 169.818 157.838 169.245 158.067C169.05 158.145 168.599 158.456 168.391 158.459C168.185 158.462 167.74 158.174 167.528 158.1C166.381 157.705 165.144 157.607 163.939 157.79C162.695 157.979 161.474 158.442 160.42 159.084C159.914 159.392 159.472 159.734 159.116 160.192C158.963 160.39 158.824 160.599 158.651 160.783C158.549 160.89 158.347 161.001 158.293 161.137C158.326 161.055 156.933 160.553 156.802 160.521C156.101 160.35 155.389 160.385 154.703 160.596C153.414 160.992 152.305 161.882 151.394 162.794C150.926 163.263 150.517 163.78 150.169 164.332C150.002 164.596 149.85 164.868 149.711 165.146C149.643 165.28 149.598 165.448 149.509 165.569C149.395 165.726 149.318 165.729 149.11 165.797C148.055 166.142 147.093 166.727 146.361 167.518C145.62 168.317 145.139 169.302 144.938 170.339C144.926 170.4 144.919 170.653 144.88 170.686C144.828 170.732 144.616 170.712 144.535 170.721C144.258 170.751 143.982 170.796 143.709 170.857C143.207 170.968 142.719 171.131 142.257 171.345C140.455 172.179 139.167 173.741 138.536 175.499C137.875 177.344 137.886 179.458 138.677 181.269C138.805 181.561 138.957 181.845 139.135 182.114C139.245 182.279 139.28 182.279 139.209 182.452C139.13 182.644 138.985 182.831 138.891 183.019C138.583 183.633 138.368 184.284 138.233 184.948C138.01 186.039 137.9 187.184 138.119 188.283C138.221 188.793 138.399 189.292 138.67 189.746C138.808 189.978 138.97 190.197 139.153 190.4C139.248 190.506 139.348 190.607 139.454 190.703C139.514 190.758 139.593 190.807 139.644 190.868C139.769 191.019 139.795 190.895 139.731 191.116C139.641 191.424 139.436 191.728 139.311 192.028C139.182 192.337 139.066 192.651 138.959 192.967C138.743 193.608 138.561 194.261 138.447 194.925C138.227 196.199 138.266 197.557 138.911 198.727C139.186 199.227 139.582 199.666 140.061 200.007C140.296 200.174 140.55 200.318 140.817 200.437C140.954 200.497 141.129 200.524 141.192 200.647C141.259 200.781 141.159 201.045 141.136 201.194C140.938 202.491 140.839 203.852 141.251 205.122C141.63 206.292 142.466 207.325 143.551 208.009C145.656 209.335 148.493 209.261 150.705 208.199C151.281 207.922 151.821 207.578 152.302 207.172C153.527 208.714 156.048 208.666 157.839 208.226C160.069 207.679 161.859 206.229 162.891 204.323C164.301 205.928 167.26 205.407 168.238 203.666C168.478 203.24 168.62 202.77 168.69 202.295C168.726 202.045 168.703 201.793 168.731 201.545C168.766 201.229 168.992 200.922 169.121 200.616C169.374 200.021 169.531 199.407 169.538 198.765C169.541 198.43 169.496 198.104 169.462 197.771C169.431 197.472 169.52 197.193 169.57 196.898C168.998 196.986 168.301 196.842 167.762 196.687C167.233 196.535 166.738 196.134 166.364 195.768C165.497 194.917 164.968 193.803 164.606 192.694C163.811 190.259 164.136 187.338 166.755 186.002C167.975 185.38 171.631 185.382 173.084 185.689C174.612 186.013 176.344 189.165 176.429 189.461C176.482 189.645 176.455 189.872 176.635 189.994C177.031 190.262 177.684 189.796 177.976 189.566C178.48 189.169 178.84 188.641 179.151 188.105C179.829 186.938 180.376 185.687 180.763 184.409C181.06 183.425 181.251 182.409 181.64 181.449C182.028 180.494 182.638 179.641 183.588 179.1C184.62 178.511 185.804 178.201 186.938 177.831C188.062 177.465 189.166 177.017 190.038 176.239C190.229 176.068 190.415 175.886 190.569 175.685C190.691 175.526 190.811 175.222 190.997 175.121C191.285 174.964 191.706 175.372 191.955 175.52C193.185 176.25 194.211 177.269 195.039 178.382C195.862 179.489 196.537 180.554 197.086 181.79C197.493 182.706 197.747 183.88 198.463 184.631C198.783 184.967 201.159 185.17 201.928 184.877C202.698 184.584 203.56 183.824 203.819 183.347C204.083 182.859 204.146 182.324 204.033 181.79C203.967 181.475 203.831 181.182 203.757 180.874C203.694 180.614 203.638 180.369 203.503 180.132C203.247 179.682 202.81 179.359 202.283 179.223C202.832 178.751 203.286 178.185 203.6 177.553C203.927 176.897 204.204 176.098 204.282 175.377C204.346 174.792 204.248 174.186 203.905 173.683C203.545 173.155 202.908 172.811 202.357 172.481C203.199 171.866 203.919 171.117 204.512 170.288C205.664 168.675 206.376 166.643 205.791 164.72Z" fill="#263238"/>
<path fill-rule="evenodd" clip-rule="evenodd" d="M178.776 192.72C178.279 191.199 176.942 189.896 175.14 189.51C174.704 189.416 174.252 189.378 173.803 189.394C173.642 189.399 173.596 189.44 173.521 189.342C173.465 189.269 173.464 189.091 173.441 189.005C173.369 188.739 173.28 188.477 173.169 188.221C172.792 187.348 172.159 186.575 171.395 185.924C169.967 184.706 168.037 183.866 166.032 183.714C164.934 183.631 163.845 183.786 162.807 184.097C162.27 184.258 161.749 184.459 161.242 184.68C161.089 184.747 160.594 185.073 160.441 185.052C160.271 185.029 159.931 184.663 159.793 184.571C158.092 183.434 155.991 182.987 153.872 183C151.48 183.016 149.177 183.12 147.182 184.39C146.759 184.659 146.357 184.953 145.974 185.263C145.772 185.426 145.577 185.596 145.391 185.772C145.278 185.878 145.169 185.987 145.064 186.099C144.885 186.288 144.914 186.351 144.663 186.218C143.703 185.71 142.591 185.473 141.47 185.593C140.805 185.664 140.157 185.838 139.542 186.067C139.333 186.145 138.849 186.456 138.626 186.459C138.404 186.462 137.927 186.174 137.699 186.1C136.467 185.705 135.14 185.607 133.846 185.79C132.511 185.979 131.2 186.442 130.069 187.084C129.525 187.392 129.05 187.734 128.669 188.192C128.504 188.39 128.356 188.599 128.169 188.783C128.06 188.89 127.844 189.001 127.785 189.137C127.82 189.055 126.325 188.553 126.184 188.521C125.432 188.35 124.667 188.385 123.931 188.596C122.547 188.992 121.357 189.882 120.379 190.794C119.877 191.263 119.437 191.78 119.064 192.332C118.885 192.596 118.721 192.868 118.572 193.146C118.499 193.28 118.451 193.448 118.356 193.569C118.232 193.726 118.15 193.729 117.927 193.797C116.794 194.142 115.762 194.727 114.975 195.518C114.18 196.317 113.664 197.302 113.448 198.339C113.435 198.4 113.427 198.653 113.386 198.686C113.33 198.732 113.102 198.712 113.016 198.721C112.718 198.751 112.421 198.796 112.129 198.857C111.59 198.968 111.066 199.131 110.57 199.345C108.636 200.179 107.253 201.741 106.576 203.499C105.865 205.344 105.878 207.458 106.727 209.269C106.864 209.561 107.027 209.845 107.219 210.114C107.336 210.279 107.374 210.279 107.298 210.452C107.213 210.644 107.057 210.831 106.956 211.019C106.626 211.633 106.396 212.284 106.25 212.948C106.011 214.039 105.892 215.184 106.128 216.283C106.238 216.793 106.428 217.292 106.719 217.746C106.868 217.978 107.042 218.197 107.238 218.4C107.339 218.506 107.447 218.607 107.561 218.703C107.625 218.758 107.71 218.807 107.765 218.868C107.899 219.019 107.927 218.895 107.858 219.116C107.761 219.424 107.542 219.728 107.408 220.028C107.269 220.337 107.144 220.651 107.03 220.967C106.798 221.608 106.602 222.261 106.479 222.925C106.244 224.199 106.285 225.557 106.977 226.727C107.273 227.227 107.698 227.666 108.213 228.007C108.465 228.174 108.738 228.318 109.024 228.437C109.171 228.497 109.359 228.524 109.426 228.647C109.499 228.781 109.391 229.045 109.367 229.194C109.154 230.491 109.047 231.852 109.49 233.122C109.897 234.292 110.794 235.325 111.959 236.009C114.219 237.335 117.265 237.261 119.639 236.199C120.258 235.922 120.837 235.578 121.353 235.172C122.669 236.714 125.375 236.666 127.297 236.226C129.692 235.679 131.614 234.229 132.721 232.323C134.235 233.928 137.412 233.407 138.462 231.666C138.719 231.24 138.871 230.77 138.946 230.295C138.986 230.045 138.961 229.793 138.99 229.545C139.028 229.229 139.27 228.922 139.41 228.616C139.681 228.021 139.849 227.407 139.857 226.765C139.86 226.43 139.812 226.104 139.775 225.771C139.742 225.472 139.837 225.193 139.892 224.898C139.277 224.986 138.529 224.842 137.95 224.687C137.383 224.535 136.851 224.134 136.45 223.768C135.519 222.917 134.951 221.803 134.562 220.694C133.708 218.259 134.058 215.338 136.87 214.002C138.18 213.38 142.103 213.382 143.663 213.689C145.304 214.013 147.163 217.165 147.255 217.461C147.311 217.645 147.283 217.872 147.476 217.994C147.901 218.262 148.602 217.796 148.916 217.566C149.457 217.169 149.843 216.641 150.177 216.105C150.905 214.938 151.492 213.687 151.907 212.409C152.227 211.425 152.431 210.409 152.849 209.449C153.265 208.494 153.92 207.641 154.94 207.1C156.048 206.511 157.319 206.201 158.536 205.831C159.743 205.465 160.929 205.017 161.864 204.239C162.07 204.068 162.269 203.886 162.435 203.685C162.565 203.526 162.695 203.222 162.894 203.121C163.203 202.964 163.655 203.372 163.923 203.52C165.243 204.25 166.345 205.269 167.233 206.382C168.117 207.489 168.842 208.554 169.431 209.79C169.868 210.706 170.141 211.88 170.909 212.631C171.252 212.967 173.803 213.17 174.629 212.877C175.455 212.584 176.381 211.824 176.658 211.347C176.942 210.859 177.01 210.324 176.889 209.79C176.817 209.475 176.672 209.182 176.592 208.874C176.525 208.614 176.464 208.369 176.319 208.132C176.045 207.682 175.576 207.359 175.01 207.223C175.599 206.751 176.086 206.185 176.424 205.553C176.774 204.897 177.072 204.098 177.156 203.377C177.224 202.792 177.119 202.186 176.751 201.683C176.365 201.155 175.681 200.811 175.089 200.481C175.993 199.866 176.767 199.117 177.402 198.288C178.639 196.675 179.404 194.643 178.776 192.72Z" fill="#263238"/>
<path fill-rule="evenodd" clip-rule="evenodd" d="M193.776 161.321C193.279 159.235 191.942 157.45 190.14 156.921C189.704 156.792 189.252 156.74 188.803 156.762C188.642 156.77 188.596 156.825 188.521 156.69C188.465 156.591 188.464 156.347 188.441 156.23C188.369 155.865 188.28 155.505 188.169 155.154C187.792 153.958 187.159 152.899 186.395 152.007C184.967 150.338 183.037 149.187 181.032 148.979C179.934 148.865 178.845 149.077 177.807 149.503C177.27 149.724 176.749 149.999 176.242 150.302C176.089 150.394 175.594 150.841 175.441 150.812C175.271 150.78 174.931 150.278 174.793 150.152C173.092 148.594 170.991 147.982 168.872 148C166.48 148.022 164.177 148.164 162.182 149.905C161.759 150.273 161.357 150.676 160.974 151.101C160.772 151.325 160.577 151.557 160.391 151.799C160.278 151.944 160.169 152.093 160.064 152.246C159.885 152.506 159.914 152.592 159.663 152.41C158.703 151.714 157.591 151.389 156.47 151.553C155.805 151.651 155.157 151.889 154.542 152.203C154.333 152.31 153.849 152.736 153.626 152.74C153.404 152.744 152.927 152.349 152.699 152.249C151.467 151.706 150.14 151.572 148.846 151.823C147.511 152.082 146.2 152.717 145.069 153.596C144.525 154.018 144.05 154.487 143.669 155.115C143.504 155.386 143.356 155.673 143.169 155.925C143.06 156.072 142.844 156.223 142.785 156.41C142.82 156.298 141.325 155.61 141.184 155.566C140.432 155.332 139.667 155.379 138.931 155.668C137.547 156.212 136.357 157.431 135.379 158.681C134.877 159.323 134.437 160.032 134.064 160.788C133.885 161.15 133.721 161.523 133.572 161.903C133.499 162.088 133.451 162.318 133.356 162.484C133.232 162.698 133.15 162.702 132.927 162.795C131.794 163.269 130.762 164.071 129.975 165.154C129.18 166.25 128.664 167.599 128.448 169.02C128.435 169.104 128.427 169.451 128.386 169.496C128.33 169.559 128.102 169.531 128.016 169.543C127.718 169.585 127.421 169.647 127.129 169.73C126.59 169.882 126.066 170.106 125.57 170.399C123.636 171.541 122.253 173.682 121.576 176.091C120.865 178.62 120.878 181.517 121.727 183.998C121.864 184.399 122.027 184.788 122.219 185.156C122.336 185.382 122.374 185.382 122.298 185.619C122.213 185.883 122.057 186.139 121.956 186.397C121.626 187.238 121.396 188.129 121.25 189.04C121.011 190.534 120.892 192.104 121.128 193.61C121.238 194.309 121.428 194.992 121.719 195.615C121.868 195.932 122.042 196.233 122.238 196.512C122.339 196.656 122.447 196.794 122.561 196.927C122.625 197.002 122.71 197.068 122.765 197.153C122.899 197.359 122.927 197.19 122.858 197.492C122.761 197.914 122.542 198.331 122.408 198.742C122.269 199.166 122.144 199.596 122.03 200.029C121.798 200.908 121.602 201.802 121.479 202.712C121.244 204.458 121.285 206.319 121.977 207.922C122.273 208.608 122.698 209.209 123.213 209.677C123.465 209.906 123.738 210.103 124.024 210.265C124.171 210.348 124.359 210.384 124.426 210.554C124.499 210.737 124.391 211.099 124.367 211.303C124.154 213.08 124.047 214.945 124.49 216.686C124.897 218.289 125.794 219.704 126.959 220.642C129.219 222.46 132.265 222.357 134.639 220.902C135.258 220.522 135.837 220.051 136.353 219.496C137.669 221.609 140.375 221.542 142.297 220.94C144.692 220.19 146.614 218.202 147.721 215.591C149.235 217.79 152.412 217.077 153.462 214.69C153.719 214.106 153.871 213.463 153.946 212.811C153.986 212.469 153.961 212.123 153.99 211.783C154.028 211.35 154.27 210.93 154.41 210.511C154.681 209.696 154.849 208.854 154.857 207.974C154.86 207.515 154.812 207.068 154.775 206.612C154.742 206.202 154.837 205.821 154.892 205.416C154.277 205.537 153.529 205.339 152.95 205.126C152.383 204.918 151.851 204.368 151.45 203.867C150.519 202.702 149.951 201.174 149.562 199.654C148.708 196.318 149.058 192.315 151.87 190.484C153.18 189.631 157.103 189.634 158.663 190.056C160.304 190.499 162.163 194.819 162.255 195.225C162.311 195.476 162.283 195.787 162.476 195.954C162.901 196.323 163.602 195.684 163.916 195.368C164.457 194.824 164.843 194.1 165.177 193.366C165.905 191.767 166.492 190.052 166.907 188.302C167.227 186.952 167.431 185.56 167.849 184.245C168.265 182.937 168.92 181.767 169.94 181.026C171.048 180.219 172.319 179.794 173.536 179.287C174.743 178.785 175.929 178.171 176.864 177.106C177.07 176.871 177.269 176.622 177.435 176.346C177.565 176.128 177.695 175.711 177.894 175.573C178.203 175.358 178.655 175.917 178.923 176.12C180.243 177.121 181.345 178.517 182.233 180.042C183.117 181.559 183.842 183.018 184.431 184.712C184.868 185.968 185.141 187.576 185.909 188.606C186.252 189.065 188.803 189.344 189.629 188.942C190.455 188.541 191.381 187.499 191.658 186.846C191.942 186.178 192.01 185.443 191.889 184.712C191.817 184.281 191.672 183.879 191.592 183.456C191.525 183.101 191.464 182.765 191.319 182.44C191.045 181.824 190.576 181.38 190.01 181.195C190.599 180.547 191.086 179.773 191.424 178.906C191.774 178.007 192.072 176.912 192.156 175.925C192.224 175.123 192.119 174.291 191.751 173.602C191.365 172.879 190.681 172.407 190.089 171.956C190.993 171.112 191.767 170.086 192.402 168.95C193.639 166.74 194.404 163.955 193.776 161.321Z" fill="#263238"/>
<path fill-rule="evenodd" clip-rule="evenodd" d="M176.776 170.72C176.279 169.199 174.942 167.896 173.14 167.51C172.704 167.416 172.252 167.378 171.803 167.394C171.642 167.399 171.596 167.44 171.521 167.342C171.465 167.269 171.464 167.091 171.441 167.005C171.369 166.739 171.28 166.477 171.169 166.221C170.792 165.348 170.159 164.575 169.395 163.924C167.967 162.706 166.037 161.866 164.032 161.714C162.934 161.631 161.845 161.786 160.807 162.097C160.27 162.258 159.749 162.459 159.242 162.68C159.089 162.747 158.594 163.073 158.441 163.052C158.271 163.029 157.931 162.663 157.793 162.571C156.092 161.434 153.991 160.987 151.872 161C149.48 161.016 147.177 161.12 145.182 162.39C144.759 162.659 144.357 162.953 143.974 163.263C143.772 163.426 143.577 163.596 143.391 163.772C143.278 163.878 143.169 163.987 143.064 164.099C142.885 164.288 142.914 164.351 142.663 164.218C141.703 163.71 140.591 163.473 139.47 163.593C138.805 163.664 138.157 163.838 137.542 164.067C137.333 164.145 136.849 164.456 136.626 164.459C136.404 164.462 135.927 164.174 135.699 164.1C134.467 163.705 133.14 163.607 131.846 163.79C130.511 163.979 129.2 164.442 128.069 165.084C127.525 165.392 127.05 165.734 126.669 166.192C126.504 166.39 126.356 166.599 126.169 166.783C126.06 166.89 125.844 167.001 125.785 167.137C125.82 167.055 124.325 166.553 124.184 166.521C123.432 166.35 122.667 166.385 121.931 166.596C120.547 166.992 119.357 167.882 118.379 168.794C117.877 169.263 117.437 169.78 117.064 170.332C116.885 170.596 116.721 170.868 116.572 171.146C116.499 171.28 116.451 171.448 116.356 171.569C116.232 171.726 116.15 171.729 115.927 171.797C114.794 172.142 113.762 172.727 112.975 173.518C112.18 174.317 111.664 175.302 111.448 176.339C111.435 176.4 111.427 176.653 111.386 176.686C111.33 176.732 111.102 176.712 111.016 176.721C110.718 176.751 110.421 176.796 110.129 176.857C109.59 176.968 109.066 177.131 108.57 177.345C106.636 178.179 105.253 179.741 104.576 181.499C103.865 183.344 103.878 185.458 104.727 187.269C104.864 187.561 105.027 187.845 105.219 188.114C105.336 188.279 105.374 188.279 105.298 188.452C105.213 188.644 105.057 188.831 104.956 189.019C104.626 189.633 104.396 190.284 104.25 190.948C104.011 192.039 103.892 193.184 104.128 194.283C104.238 194.793 104.428 195.292 104.719 195.746C104.868 195.978 105.042 196.197 105.238 196.4C105.339 196.506 105.447 196.607 105.561 196.703C105.625 196.758 105.71 196.807 105.765 196.868C105.899 197.019 105.927 196.895 105.858 197.116C105.761 197.424 105.542 197.728 105.408 198.028C105.269 198.337 105.144 198.651 105.03 198.967C104.798 199.608 104.602 200.261 104.479 200.925C104.244 202.199 104.285 203.557 104.977 204.727C105.273 205.227 105.698 205.666 106.213 206.007C106.465 206.174 106.738 206.318 107.024 206.437C107.171 206.497 107.359 206.524 107.426 206.647C107.499 206.781 107.391 207.045 107.367 207.194C107.154 208.491 107.047 209.852 107.49 211.122C107.897 212.292 108.794 213.325 109.959 214.009C112.219 215.335 115.265 215.261 117.639 214.199C118.258 213.922 118.837 213.578 119.353 213.172C120.669 214.714 123.375 214.666 125.297 214.226C127.692 213.679 129.614 212.229 130.721 210.323C132.235 211.928 135.412 211.407 136.462 209.666C136.719 209.24 136.871 208.77 136.946 208.295C132.562 198.694 136.961 207.793 136.99 207.545C137.028 207.229 137.27 206.922 137.41 206.616C137.681 206.021 137.849 205.407 137.857 204.765C137.86 204.43 137.812 204.104 137.775 203.771C137.742 203.472 137.837 203.193 137.892 202.898C137.277 202.986 136.529 202.842 135.95 202.687C135.383 202.535 134.851 202.134 134.45 201.768C133.519 200.917 132.951 199.803 132.562 198.694C132.562 198.694 132.058 193.338 134.87 192.002C136.18 191.38 140.103 191.382 141.663 191.689C143.304 192.013 145.163 195.165 145.255 195.461C145.311 195.645 145.283 195.872 145.476 195.994C145.901 196.262 146.602 195.796 146.916 195.566C147.457 195.169 147.843 194.641 148.177 194.105C148.905 192.938 149.492 191.687 149.907 190.409C150.227 189.425 150.431 188.409 150.849 187.449C151.265 186.494 151.92 185.641 152.94 185.1C154.048 184.511 155.319 184.201 156.536 183.831C157.743 183.465 158.929 183.017 159.864 182.239C160.07 182.068 160.269 181.886 160.435 181.685C160.565 181.526 160.695 181.222 160.894 181.121C161.203 180.964 161.655 181.372 161.923 181.52C163.243 182.25 164.345 183.269 165.233 184.382C166.117 185.489 166.842 186.554 167.431 187.79C167.868 188.706 168.141 189.88 168.909 190.631C169.252 190.967 171.803 191.17 172.629 190.877C173.455 190.584 174.381 189.824 174.658 189.347C174.942 188.859 175.01 188.324 174.889 187.79C174.817 187.475 174.672 187.182 174.592 186.874C174.525 186.614 174.464 186.369 174.319 186.132C174.045 185.682 173.576 185.359 173.01 185.223C173.599 184.751 174.086 184.185 174.424 183.553C174.774 182.897 175.072 182.098 175.156 181.377C175.224 180.792 175.119 180.186 174.751 179.683C174.365 179.155 173.681 178.811 173.089 178.481C172.454 179.311 173.993 177.866 173.089 178.481C174.326 176.869 177.404 172.643 176.776 170.72Z" fill="#263238"/>
<path fill-rule="evenodd" clip-rule="evenodd" d="M165.916 169.581C165.418 167.298 164.079 165.344 162.274 164.764C161.836 164.624 161.384 164.567 160.934 164.591C160.772 164.599 160.727 164.66 160.651 164.513C160.595 164.403 160.594 164.136 160.571 164.008C160.499 163.609 160.41 163.215 160.299 162.831C159.921 161.521 159.287 160.362 158.522 159.386C157.09 157.56 155.157 156.299 153.148 156.071C152.048 155.946 150.957 156.179 149.917 156.646C149.379 156.887 148.857 157.188 148.349 157.52C148.196 157.62 147.699 158.11 147.546 158.078C147.376 158.043 147.035 157.494 146.897 157.356C145.193 155.65 143.088 154.98 140.964 155C138.568 155.024 136.26 155.18 134.261 157.085C133.838 157.488 133.435 157.93 133.051 158.395C132.849 158.639 132.654 158.893 132.467 159.158C132.354 159.317 132.245 159.481 132.139 159.648C131.96 159.933 131.989 160.026 131.738 159.828C130.776 159.066 129.661 158.709 128.539 158.889C127.872 158.996 127.223 159.257 126.607 159.6C126.398 159.717 125.912 160.184 125.689 160.188C125.467 160.193 124.988 159.76 124.76 159.651C123.526 159.057 122.197 158.91 120.9 159.185C119.563 159.468 118.249 160.164 117.115 161.125C116.57 161.588 116.095 162.1 115.713 162.788C115.548 163.085 115.399 163.399 115.212 163.674C115.103 163.836 114.886 164.001 114.827 164.205C114.862 164.083 113.364 163.33 113.223 163.282C112.47 163.025 111.703 163.077 110.966 163.394C109.579 163.989 108.387 165.323 107.407 166.691C106.903 167.394 106.463 168.17 106.089 168.998C105.91 169.394 105.746 169.802 105.596 170.218C105.523 170.42 105.475 170.673 105.379 170.854C105.256 171.088 105.173 171.093 104.95 171.195C103.815 171.713 102.78 172.591 101.993 173.776C101.196 174.976 100.679 176.453 100.462 178.009C100.449 178.1 100.442 178.48 100.401 178.53C100.344 178.598 100.116 178.568 100.03 178.581C99.7306 178.627 99.4338 178.695 99.1409 178.785C98.6011 178.952 98.0756 179.197 97.5785 179.518C95.6407 180.768 94.255 183.112 93.5768 185.749C92.8651 188.516 92.8778 191.687 93.7283 194.403C93.8657 194.842 94.0291 195.268 94.2212 195.671C94.3391 195.918 94.3771 195.918 94.3005 196.178C94.2152 196.466 94.0593 196.747 93.958 197.029C93.6274 197.949 93.3963 198.925 93.2504 199.922C93.0109 201.558 92.8922 203.276 93.1284 204.924C93.2381 205.689 93.4293 206.437 93.7209 207.119C93.8696 207.466 94.0435 207.796 94.24 208.101C94.342 208.259 94.4503 208.41 94.5636 208.555C94.6283 208.638 94.7133 208.71 94.7684 208.802C94.9029 209.028 94.9311 208.843 94.8618 209.173C94.7648 209.636 94.545 210.092 94.4104 210.542C94.2717 211.006 94.1463 211.476 94.0317 211.951C93.7994 212.913 93.6031 213.891 93.4803 214.887C93.2445 216.799 93.2859 218.836 93.9793 220.59C94.2758 221.341 94.7012 221.999 95.2171 222.511C95.4696 222.762 95.7431 222.978 96.0301 223.155C96.1775 223.246 96.3657 223.285 96.433 223.471C96.5054 223.671 96.3979 224.068 96.3734 224.292C96.1602 226.236 96.0532 228.277 96.4965 230.183C96.9048 231.938 97.8036 233.487 98.9707 234.513C101.235 236.503 104.286 236.391 106.665 234.798C107.285 234.383 107.865 233.867 108.383 233.259C109.701 235.572 112.412 235.499 114.338 234.839C116.738 234.018 118.663 231.843 119.772 228.984C121.289 231.392 124.473 230.611 125.525 227.999C125.782 227.36 125.935 226.655 126.01 225.942C121.617 211.54 126.024 225.189 126.054 224.817C126.092 224.343 126.335 223.883 126.474 223.424C126.746 222.532 126.915 221.61 126.922 220.648C126.926 220.145 126.877 219.655 126.84 219.157C126.807 218.708 126.903 218.29 126.957 217.847C126.342 217.979 125.592 217.763 125.012 217.53C124.443 217.302 123.91 216.701 123.509 216.151C122.576 214.876 122.007 213.204 121.617 211.54C121.617 211.54 121.112 203.507 123.929 201.503C125.242 200.569 129.173 200.572 130.736 201.034C132.38 201.519 134.243 206.247 134.334 206.692C134.391 206.967 134.362 207.307 134.556 207.491C134.982 207.894 135.685 207.194 135.999 206.849C136.541 206.253 136.927 205.461 137.262 204.657C137.992 202.907 138.58 201.03 138.996 199.114C139.316 197.637 139.521 196.113 139.94 194.674C140.356 193.241 141.013 191.961 142.034 191.15C143.145 190.267 144.418 189.802 145.638 189.247C146.847 188.697 148.035 188.025 148.972 186.859C149.178 186.602 149.378 186.33 149.544 186.028C149.675 185.789 149.804 185.333 150.004 185.182C150.314 184.946 150.766 185.558 151.034 185.78C152.357 186.876 153.461 188.404 154.351 190.073C155.237 191.733 155.963 193.331 156.553 195.184C156.991 196.559 157.264 198.32 158.035 199.447C158.378 199.95 160.934 200.254 161.762 199.815C162.589 199.376 163.517 198.235 163.795 197.521C164.079 196.789 164.147 195.985 164.026 195.184C163.954 194.713 163.808 194.273 163.728 193.81C163.661 193.422 163.6 193.054 163.455 192.698C163.18 192.023 162.71 191.538 162.143 191.335C162.733 190.626 163.222 189.778 163.56 188.83C163.911 187.845 164.209 186.647 164.293 185.566C164.362 184.688 164.256 183.778 163.887 183.024C163.501 182.232 162.816 181.716 162.223 181.222C161.586 182.466 163.128 180.298 162.223 181.222C163.462 178.804 166.545 172.464 165.916 169.581Z" fill="#263238"/>
<path fill-rule="evenodd" clip-rule="evenodd" d="M114.748 265.578C114.81 266.248 115.184 266.877 115.788 267.151C115.935 267.217 116.091 267.261 116.25 267.282C116.307 267.29 116.326 267.275 116.345 267.321C116.359 267.355 116.347 267.43 116.348 267.467C116.354 267.583 116.366 267.699 116.386 267.813C116.454 268.203 116.619 268.566 116.839 268.887C117.251 269.486 117.867 269.958 118.561 270.146C118.94 270.249 119.335 270.251 119.722 270.185C119.923 270.151 120.121 270.099 120.315 270.038C120.374 270.019 120.572 269.913 120.625 269.931C120.682 269.951 120.775 270.126 120.816 270.173C121.33 270.756 122.036 271.073 122.781 271.199C123.623 271.341 124.44 271.44 125.235 271.031C125.404 270.944 125.567 270.845 125.724 270.739C125.807 270.683 125.888 270.624 125.967 270.562C126.014 270.524 126.061 270.485 126.106 270.445C126.183 270.377 126.177 270.349 126.256 270.42C126.555 270.692 126.929 270.861 127.331 270.88C127.571 270.891 127.811 270.858 128.044 270.8C128.123 270.781 128.317 270.68 128.395 270.693C128.473 270.705 128.62 270.856 128.694 270.901C129.098 271.143 129.557 271.266 130.025 271.27C130.508 271.273 131.004 271.16 131.448 270.961C131.662 270.865 131.854 270.752 132.022 270.583C132.095 270.51 132.163 270.431 132.242 270.366C132.288 270.328 132.372 270.295 132.403 270.241C132.385 270.273 132.873 270.577 132.92 270.599C133.172 270.717 133.443 270.75 133.717 270.707C134.233 270.626 134.717 270.327 135.128 270.005C135.339 269.84 135.532 269.65 135.704 269.442C135.787 269.342 135.864 269.238 135.937 269.131C135.973 269.079 136.002 269.011 136.045 268.966C136.099 268.909 136.129 268.912 136.212 268.898C136.636 268.823 137.042 268.642 137.377 268.359C137.715 268.073 137.969 267.691 138.122 267.27C138.131 267.245 138.153 267.139 138.169 267.128C138.193 267.112 138.271 267.135 138.302 267.137C138.409 267.142 138.517 267.142 138.624 267.134C138.821 267.121 139.018 267.085 139.208 267.026C139.949 266.796 140.551 266.227 140.919 265.531C141.305 264.801 141.457 263.914 141.292 263.102C141.266 262.971 141.23 262.841 141.182 262.717C141.153 262.64 141.14 262.638 141.179 262.57C141.223 262.495 141.292 262.426 141.341 262.353C141.503 262.116 141.632 261.858 141.732 261.588C141.897 261.145 142.023 260.672 142.022 260.197C142.021 259.976 141.991 259.755 141.922 259.547C141.887 259.44 141.842 259.337 141.788 259.24C141.76 259.189 141.73 259.14 141.697 259.093C141.679 259.066 141.652 259.04 141.638 259.011C141.602 258.94 141.582 258.99 141.623 258.901C141.68 258.778 141.78 258.664 141.849 258.547C141.92 258.425 141.988 258.302 142.051 258.176C142.18 257.921 142.297 257.66 142.389 257.389C142.566 256.869 142.652 256.297 142.496 255.763C142.429 255.535 142.312 255.325 142.156 255.15C142.08 255.064 141.995 254.987 141.903 254.919C141.856 254.885 141.791 254.862 141.777 254.806C141.761 254.746 141.819 254.641 141.838 254.58C142.009 254.05 142.147 253.486 142.086 252.925C142.029 252.409 141.79 251.92 141.431 251.561C140.735 250.865 139.659 250.707 138.746 251.006C138.508 251.084 138.28 251.192 138.068 251.33C137.72 250.602 136.765 250.454 136.057 250.52C135.175 250.601 134.392 251.09 133.862 251.821C133.449 251.054 132.294 251.075 131.796 251.741C131.674 251.904 131.586 252.091 131.525 252.286C132.355 256.585 131.482 252.496 131.454 252.598C131.417 252.728 131.309 252.842 131.238 252.961C131.098 253.194 130.994 253.441 130.944 253.71C130.918 253.85 130.911 253.99 130.899 254.132C130.888 254.259 130.834 254.37 130.793 254.491C131.016 254.492 131.268 254.599 131.46 254.7C131.648 254.799 131.805 255 131.919 255.178C132.183 255.593 132.301 256.095 132.355 256.585C132.355 256.585 132.136 258.862 131.049 259.249C130.543 259.429 129.164 259.185 128.639 258.959C128.086 258.721 127.666 257.284 127.656 257.154C127.649 257.074 127.676 256.98 127.617 256.917C127.488 256.778 127.207 256.93 127.08 257.007C126.86 257.14 126.685 257.338 126.528 257.542C126.186 257.986 125.887 258.475 125.647 258.985C125.462 259.378 125.315 259.791 125.097 260.168C124.88 260.543 124.587 260.86 124.189 261.024C123.755 261.202 123.286 261.253 122.831 261.333C122.38 261.412 121.93 261.527 121.544 261.795C121.459 261.854 121.375 261.918 121.302 261.992C121.244 262.05 121.176 262.17 121.099 262.2C120.979 262.247 120.85 262.048 120.767 261.969C120.357 261.581 120.045 261.085 119.815 260.563C119.586 260.044 119.41 259.553 119.295 258.998C119.209 258.586 119.2 258.077 118.985 257.714C118.89 257.552 118.008 257.309 117.696 257.381C117.384 257.452 117.003 257.714 116.87 257.897C116.734 258.084 116.671 258.304 116.674 258.536C116.676 258.672 116.705 258.804 116.71 258.938C116.715 259.051 116.718 259.158 116.751 259.266C116.815 259.472 116.956 259.637 117.144 259.728C116.903 259.89 116.689 260.097 116.524 260.341C116.352 260.595 116.189 260.912 116.106 261.209C116.038 261.45 116.031 261.711 116.123 261.945C116.219 262.19 116.434 262.377 116.618 262.552C116.903 262.243 116.255 262.754 116.618 262.552C116.064 263.151 114.67 264.733 114.748 265.578Z" fill="#263238"/>
<path fill-rule="evenodd" clip-rule="evenodd" d="M106.97 192.14C106.793 191.492 106.316 190.937 105.673 190.773C105.517 190.733 105.356 190.717 105.196 190.723C105.138 190.726 105.122 190.743 105.095 190.701C105.075 190.67 105.075 190.594 105.066 190.558C105.041 190.445 105.009 190.333 104.97 190.224C104.835 189.852 104.609 189.523 104.336 189.245C103.827 188.727 103.138 188.369 102.422 188.304C102.031 188.269 101.642 188.335 101.272 188.467C101.08 188.536 100.894 188.621 100.713 188.716C100.659 188.744 100.482 188.883 100.427 188.874C100.367 188.864 100.245 188.708 100.196 188.669C99.5892 188.185 98.8394 187.994 98.0832 188C97.2296 188.007 96.4077 188.051 95.6957 188.592C95.545 188.706 95.4015 188.832 95.2649 188.964C95.1929 189.033 95.1232 189.106 95.0567 189.181C95.0166 189.226 94.9776 189.272 94.94 189.32C94.8762 189.401 94.8864 189.427 94.7971 189.371C94.4545 189.154 94.0575 189.053 93.6576 189.104C93.4201 189.135 93.1891 189.209 92.9697 189.306C92.895 189.34 92.7221 189.472 92.6425 189.473C92.5636 189.475 92.3931 189.352 92.3118 189.321C91.8724 189.152 91.3988 189.11 90.937 189.188C90.4606 189.269 89.9927 189.466 89.5891 189.739C89.3949 189.871 89.2256 190.016 89.0895 190.211C89.0308 190.296 88.9777 190.385 88.9111 190.463C88.8721 190.509 88.7949 190.556 88.774 190.614C88.7865 190.579 88.2531 190.365 88.2027 190.352C87.9345 190.279 87.6614 190.294 87.3988 190.383C86.9049 190.552 86.4802 190.931 86.1312 191.32C85.9519 191.519 85.795 191.74 85.6618 191.975C85.598 192.087 85.5396 192.203 85.4862 192.321C85.4603 192.379 85.4432 192.45 85.4091 192.502C85.3652 192.568 85.3356 192.57 85.2561 192.599C84.8519 192.746 84.4834 192.995 84.2029 193.332C83.9191 193.672 83.7349 194.092 83.6577 194.533C83.6532 194.559 83.6505 194.667 83.6358 194.681C83.6157 194.701 83.5344 194.692 83.5037 194.696C83.3972 194.709 83.2915 194.728 83.1872 194.754C82.9949 194.801 82.8077 194.871 82.6307 194.962C81.9405 195.317 81.447 195.982 81.2054 196.731C80.952 197.517 80.9565 198.417 81.2594 199.189C81.3083 199.313 81.3665 199.434 81.4349 199.548C81.4769 199.619 81.4905 199.619 81.4632 199.692C81.4328 199.774 81.3773 199.854 81.3412 199.934C81.2235 200.195 81.1412 200.473 81.0892 200.756C81.0039 201.22 80.9616 201.708 81.0457 202.176C81.0848 202.393 81.1529 202.606 81.2568 202.799C81.3097 202.898 81.3717 202.991 81.4416 203.078C81.478 203.123 81.5165 203.166 81.5569 203.207C81.58 203.23 81.6102 203.251 81.6298 203.277C81.6777 203.341 81.6878 203.289 81.6631 203.383C81.6286 203.514 81.5503 203.643 81.5023 203.771C81.4529 203.903 81.4083 204.037 81.3674 204.171C81.2847 204.444 81.2148 204.722 81.1711 205.005C81.0871 205.548 81.1018 206.126 81.3488 206.624C81.4544 206.837 81.6059 207.024 81.7897 207.17C81.8796 207.241 81.977 207.302 82.0792 207.353C82.1317 207.379 82.1988 207.39 82.2227 207.442C82.2485 207.499 82.2102 207.612 82.2015 207.675C82.1255 208.227 82.0875 208.807 82.2453 209.348C82.3907 209.847 82.7109 210.287 83.1265 210.578C83.9329 211.143 85.0198 211.111 85.8671 210.659C86.0879 210.541 86.2946 210.394 86.4789 210.222C86.9482 210.878 87.914 210.858 88.6 210.67C89.4546 210.437 90.1403 209.82 90.5354 209.008C91.0757 209.692 92.2094 209.47 92.5841 208.728C92.6758 208.547 92.7302 208.347 92.7569 208.144C91.1924 204.055 92.762 207.93 92.7726 207.825C92.7861 207.69 92.8726 207.559 92.9223 207.429C93.0191 207.176 93.0792 206.914 93.0818 206.641C93.0831 206.498 93.0658 206.359 93.0527 206.217C93.041 206.09 93.075 205.971 93.0943 205.845C92.8751 205.883 92.6081 205.822 92.4016 205.755C92.1989 205.691 92.0091 205.52 91.8661 205.364C91.534 205.002 91.3311 204.527 91.1924 204.055C91.1924 204.055 91.0127 201.774 92.016 201.205C92.4833 200.939 93.8836 200.94 94.4403 201.071C95.0256 201.209 95.6891 202.552 95.7218 202.678C95.742 202.756 95.7318 202.853 95.8009 202.905C95.9525 203.019 96.2027 202.821 96.3146 202.723C96.5077 202.553 96.6454 202.328 96.7646 202.1C97.0245 201.603 97.234 201.07 97.382 200.526C97.4961 200.107 97.5691 199.674 97.7182 199.265C97.8666 198.859 98.1005 198.495 98.4642 198.265C98.8599 198.014 99.3134 197.882 99.7478 197.724C100.178 197.568 100.601 197.378 100.935 197.046C101.009 196.973 101.08 196.896 101.139 196.81C101.186 196.743 101.232 196.613 101.303 196.57C101.413 196.503 101.574 196.677 101.67 196.74C102.141 197.051 102.534 197.485 102.851 197.959C103.166 198.43 103.425 198.884 103.635 199.41C103.791 199.801 103.889 200.301 104.163 200.621C104.285 200.764 105.196 200.85 105.49 200.725C105.785 200.601 106.116 200.277 106.215 200.074C106.316 199.866 106.34 199.638 106.297 199.41C106.271 199.277 106.219 199.152 106.191 199.02C106.167 198.91 106.145 198.805 106.094 198.704C105.996 198.513 105.828 198.375 105.626 198.317C105.836 198.116 106.01 197.875 106.131 197.606C106.256 197.326 106.362 196.986 106.392 196.679C106.417 196.43 106.379 196.172 106.248 195.957C106.11 195.733 105.866 195.586 105.655 195.446C105.428 195.799 105.977 195.184 105.655 195.446C106.096 194.759 107.194 192.959 106.97 192.14Z" fill="#263238"/>
<path fill-rule="evenodd" clip-rule="evenodd" d="M93.6402 245.53C92.9921 245.707 92.4372 246.184 92.2726 246.827C92.2327 246.983 92.2166 247.144 92.2233 247.304C92.2257 247.362 92.2429 247.378 92.2011 247.405C92.1701 247.425 92.0943 247.425 92.0579 247.434C91.9445 247.459 91.8326 247.491 91.7236 247.53C91.3518 247.665 91.0227 247.891 90.7455 248.164C90.2268 248.673 89.8689 249.362 89.8041 250.078C89.7687 250.469 89.8349 250.858 89.9673 251.228C90.0359 251.42 90.1212 251.606 90.2156 251.787C90.244 251.841 90.3831 252.018 90.3741 252.073C90.3642 252.133 90.2081 252.255 90.1689 252.304C89.6847 252.911 89.4943 253.661 89.5001 254.417C89.5067 255.27 89.551 256.092 90.092 256.804C90.2065 256.955 90.3319 257.098 90.4639 257.235C90.5334 257.307 90.6055 257.377 90.6806 257.443C90.7259 257.483 90.7723 257.522 90.8199 257.56C90.9006 257.624 90.9271 257.614 90.8708 257.703C90.6544 258.046 90.5532 258.443 90.6043 258.842C90.6347 259.08 90.7088 259.311 90.8063 259.53C90.8395 259.605 90.972 259.778 90.9733 259.857C90.9745 259.936 90.8517 260.107 90.8205 260.188C90.6519 260.628 90.6104 261.101 90.6883 261.563C90.7687 262.039 90.9662 262.507 91.2393 262.911C91.3706 263.105 91.5161 263.274 91.7114 263.41C91.7957 263.469 91.8849 263.522 91.9631 263.589C92.0089 263.628 92.0558 263.705 92.1138 263.726C92.0791 263.713 91.8653 264.247 91.8516 264.297C91.7788 264.565 91.7936 264.839 91.8834 265.101C92.0524 265.595 92.4312 266.02 92.8197 266.369C93.0192 266.548 93.2398 266.705 93.4747 266.838C93.5873 266.902 93.7031 266.96 93.8213 267.014C93.8786 267.04 93.9502 267.057 94.0018 267.091C94.0683 267.135 94.0696 267.164 94.0986 267.244C94.2458 267.648 94.4949 268.017 94.8316 268.297C95.1722 268.581 95.5916 268.765 96.0333 268.842C96.0594 268.847 96.1672 268.85 96.1813 268.864C96.2007 268.884 96.1921 268.966 96.1958 268.996C96.2088 269.103 96.2281 269.209 96.2538 269.313C96.3011 269.505 96.3707 269.692 96.4618 269.869C96.8168 270.559 97.4823 271.053 98.2311 271.295C99.017 271.548 99.9174 271.544 100.689 271.241C100.813 271.192 100.934 271.133 101.048 271.065C101.119 271.023 101.119 271.01 101.192 271.037C101.274 271.067 101.354 271.123 101.434 271.159C101.695 271.277 101.973 271.359 102.256 271.411C102.72 271.496 103.208 271.538 103.676 271.454C103.893 271.415 104.106 271.347 104.299 271.243C104.398 271.19 104.491 271.128 104.578 271.058C104.623 271.022 104.666 270.983 104.707 270.943C104.73 270.92 104.751 270.89 104.777 270.87C104.841 270.822 104.789 270.812 104.883 270.837C105.014 270.871 105.143 270.95 105.271 270.998C105.403 271.047 105.537 271.092 105.671 271.133C105.944 271.215 106.222 271.285 106.505 271.329C107.048 271.413 107.626 271.398 108.124 271.151C108.337 271.046 108.524 270.894 108.67 270.71C108.741 270.62 108.802 270.523 108.853 270.421C108.879 270.368 108.89 270.301 108.942 270.277C108.999 270.252 109.112 270.29 109.175 270.299C109.727 270.374 110.307 270.413 110.848 270.255C111.347 270.109 111.787 269.789 112.078 269.373C112.643 268.567 112.611 267.48 112.159 266.633C112.041 266.412 111.894 266.205 111.722 266.021C112.378 265.552 112.358 264.586 112.17 263.9C111.937 263.045 111.32 262.36 110.508 261.965C111.192 261.424 110.97 260.291 110.228 259.916C110.047 259.824 109.847 259.77 109.644 259.743C105.555 261.308 109.43 259.738 109.325 259.727C109.19 259.714 109.059 259.627 108.929 259.578C108.676 259.481 108.414 259.421 108.141 259.418C107.998 259.417 107.859 259.434 107.717 259.447C107.59 259.459 107.471 259.425 107.345 259.406C107.383 259.625 107.322 259.892 107.255 260.098C107.191 260.301 107.02 260.491 106.864 260.634C106.502 260.966 106.027 261.169 105.555 261.308C105.555 261.308 103.274 261.487 102.705 260.484C102.439 260.017 102.44 258.616 102.571 258.06C102.709 257.474 104.052 256.811 104.178 256.778C104.256 256.758 104.353 256.768 104.405 256.699C104.519 256.547 104.321 256.297 104.223 256.185C104.053 255.992 103.828 255.855 103.6 255.735C103.103 255.475 102.57 255.266 102.026 255.118C101.607 255.004 101.174 254.931 100.765 254.782C100.359 254.633 99.9951 254.399 99.7647 254.036C99.514 253.64 99.382 253.187 99.2245 252.752C99.0684 252.322 98.8776 251.899 98.5463 251.565C98.4735 251.491 98.3961 251.42 98.3103 251.361C98.2426 251.314 98.113 251.268 98.0701 251.197C98.0033 251.087 98.177 250.926 98.24 250.83C98.5511 250.359 98.985 249.966 99.459 249.649C99.9304 249.334 100.384 249.075 100.91 248.865C101.301 248.709 101.801 248.611 102.121 248.337C102.264 248.215 102.35 247.304 102.225 247.01C102.101 246.715 101.777 246.384 101.574 246.285C101.366 246.184 101.138 246.16 100.91 246.203C100.777 246.229 100.652 246.281 100.52 246.309C100.41 246.333 100.305 246.355 100.204 246.406C100.013 246.504 99.875 246.672 99.8174 246.874C99.6161 246.664 99.3753 246.49 99.1061 246.369C98.8264 246.244 98.4863 246.138 98.1793 246.108C97.93 246.083 97.6717 246.121 97.4574 246.252C97.2326 246.39 97.086 246.634 96.9458 246.845C97.2989 247.072 96.6835 246.523 96.9458 246.845C96.259 246.404 94.4589 245.306 93.6402 245.53Z" fill="#263238"/>
</svg>
